<mxfile host="Electron" modified="2025-04-08T12:50:32.249Z" agent="Mozilla/5.0 (X11; Linux x86_64) AppleWebKit/537.36 (KHTML, like Gecko) draw.io/22.1.2 Chrome/114.0.5735.289 Electron/25.9.4 Safari/537.36" etag="XXh2m_NZMQsxw8Ph8Zrc" version="22.1.2" type="device" pages="6">
  <diagram name="Structs" id="yxizr6gOCpLpr0kQqWxt">
    <mxGraphModel dx="737" dy="469" grid="1" gridSize="10" guides="1" tooltips="1" connect="1" arrows="1" fold="1" page="1" pageScale="1" pageWidth="827" pageHeight="1169" math="0" shadow="0">
      <root>
        <mxCell id="0" />
        <mxCell id="1" parent="0" />
        <mxCell id="gth_t5iaSCyJhUWu2KiP-31" value="RobotLibrary::Model::Limits" style="swimlane;fontStyle=1;childLayout=stackLayout;horizontal=1;startSize=26;horizontalStack=0;resizeParent=1;resizeParentMax=0;resizeLast=0;collapsible=1;marginBottom=0;" vertex="1" parent="1">
          <mxGeometry x="140" y="250" width="200" height="78" as="geometry" />
        </mxCell>
        <mxCell id="gth_t5iaSCyJhUWu2KiP-32" value="- lower: double" style="text;strokeColor=none;fillColor=none;align=left;verticalAlign=top;spacingLeft=4;spacingRight=4;overflow=hidden;rotatable=0;points=[[0,0.5],[1,0.5]];portConstraint=eastwest;" vertex="1" parent="gth_t5iaSCyJhUWu2KiP-31">
          <mxGeometry y="26" width="200" height="26" as="geometry" />
        </mxCell>
        <mxCell id="gth_t5iaSCyJhUWu2KiP-33" value="- upper: double" style="text;strokeColor=none;fillColor=none;align=left;verticalAlign=top;spacingLeft=4;spacingRight=4;overflow=hidden;rotatable=0;points=[[0,0.5],[1,0.5]];portConstraint=eastwest;" vertex="1" parent="gth_t5iaSCyJhUWu2KiP-31">
          <mxGeometry y="52" width="200" height="26" as="geometry" />
        </mxCell>
        <mxCell id="gth_t5iaSCyJhUWu2KiP-34" value="RobotLibrary::Model::ReferenceFrame" style="swimlane;fontStyle=1;childLayout=stackLayout;horizontal=1;startSize=26;horizontalStack=0;resizeParent=1;resizeParentMax=0;resizeLast=0;collapsible=1;marginBottom=0;" vertex="1" parent="1">
          <mxGeometry x="105" y="350" width="270" height="78" as="geometry" />
        </mxCell>
        <mxCell id="gth_t5iaSCyJhUWu2KiP-35" value="- link: RobotLibrary::Model::Link*" style="text;strokeColor=none;fillColor=none;align=left;verticalAlign=top;spacingLeft=4;spacingRight=4;overflow=hidden;rotatable=0;points=[[0,0.5],[1,0.5]];portConstraint=eastwest;" vertex="1" parent="gth_t5iaSCyJhUWu2KiP-34">
          <mxGeometry y="26" width="270" height="26" as="geometry" />
        </mxCell>
        <mxCell id="gth_t5iaSCyJhUWu2KiP-36" value="- relativePose: RobotLibrary::Model::Pose" style="text;strokeColor=none;fillColor=none;align=left;verticalAlign=top;spacingLeft=4;spacingRight=4;overflow=hidden;rotatable=0;points=[[0,0.5],[1,0.5]];portConstraint=eastwest;" vertex="1" parent="gth_t5iaSCyJhUWu2KiP-34">
          <mxGeometry y="52" width="270" height="26" as="geometry" />
        </mxCell>
      </root>
    </mxGraphModel>
  </diagram>
  <diagram id="UJM0v2DhsDrQGk8DCJeh" name="Pose">
    <mxGraphModel dx="842" dy="1705" grid="1" gridSize="10" guides="1" tooltips="1" connect="1" arrows="1" fold="1" page="1" pageScale="1" pageWidth="827" pageHeight="1169" math="0" shadow="0">
      <root>
        <mxCell id="0" />
        <mxCell id="1" parent="0" />
        <mxCell id="rX2V7xrSRh4awxG6ETd--1" value="RobotLibrary::Model::Pose" style="swimlane;fontStyle=1;childLayout=stackLayout;horizontal=1;startSize=26;horizontalStack=0;resizeParent=1;resizeParentMax=0;resizeLast=0;collapsible=1;marginBottom=0;" vertex="1" parent="1">
          <mxGeometry x="20" y="-1090" width="410" height="372" as="geometry" />
        </mxCell>
        <mxCell id="rX2V7xrSRh4awxG6ETd--2" value="- _quaternion: Eigen::Quaterniond" style="text;strokeColor=none;fillColor=none;align=left;verticalAlign=top;spacingLeft=4;spacingRight=4;overflow=hidden;rotatable=0;points=[[0,0.5],[1,0.5]];portConstraint=eastwest;" vertex="1" parent="rX2V7xrSRh4awxG6ETd--1">
          <mxGeometry y="26" width="410" height="26" as="geometry" />
        </mxCell>
        <mxCell id="rX2V7xrSRh4awxG6ETd--3" value="- _translation: Eigen::Vector3d" style="text;strokeColor=none;fillColor=none;align=left;verticalAlign=top;spacingLeft=4;spacingRight=4;overflow=hidden;rotatable=0;points=[[0,0.5],[1,0.5]];portConstraint=eastwest;" vertex="1" parent="rX2V7xrSRh4awxG6ETd--1">
          <mxGeometry y="52" width="410" height="26" as="geometry" />
        </mxCell>
        <mxCell id="rX2V7xrSRh4awxG6ETd--4" value="" style="line;strokeWidth=1;fillColor=none;align=left;verticalAlign=middle;spacingTop=-1;spacingLeft=3;spacingRight=3;rotatable=0;labelPosition=right;points=[];portConstraint=eastwest;" vertex="1" parent="rX2V7xrSRh4awxG6ETd--1">
          <mxGeometry y="78" width="410" height="8" as="geometry" />
        </mxCell>
        <mxCell id="rX2V7xrSRh4awxG6ETd--5" value="+ Pose()" style="text;strokeColor=none;fillColor=none;align=left;verticalAlign=top;spacingLeft=4;spacingRight=4;overflow=hidden;rotatable=0;points=[[0,0.5],[1,0.5]];portConstraint=eastwest;" vertex="1" parent="rX2V7xrSRh4awxG6ETd--1">
          <mxGeometry y="86" width="410" height="26" as="geometry" />
        </mxCell>
        <mxCell id="rX2V7xrSRh4awxG6ETd--6" value="+ Pose(translation: Eigen::Vector3d, quaternion: Eigen::Quaterniond)" style="text;strokeColor=none;fillColor=none;align=left;verticalAlign=top;spacingLeft=4;spacingRight=4;overflow=hidden;rotatable=0;points=[[0,0.5],[1,0.5]];portConstraint=eastwest;" vertex="1" parent="rX2V7xrSRh4awxG6ETd--1">
          <mxGeometry y="112" width="410" height="26" as="geometry" />
        </mxCell>
        <mxCell id="rX2V7xrSRh4awxG6ETd--7" value="+ as_matrix(): Eigen::Matrix4d" style="text;strokeColor=none;fillColor=none;align=left;verticalAlign=top;spacingLeft=4;spacingRight=4;overflow=hidden;rotatable=0;points=[[0,0.5],[1,0.5]];portConstraint=eastwest;" vertex="1" parent="rX2V7xrSRh4awxG6ETd--1">
          <mxGeometry y="138" width="410" height="26" as="geometry" />
        </mxCell>
        <mxCell id="rX2V7xrSRh4awxG6ETd--8" value="+ error(desired: Pose): Eigen::Vector&lt;double, 6&gt;" style="text;strokeColor=none;fillColor=none;align=left;verticalAlign=top;spacingLeft=4;spacingRight=4;overflow=hidden;rotatable=0;points=[[0,0.5],[1,0.5]];portConstraint=eastwest;" vertex="1" parent="rX2V7xrSRh4awxG6ETd--1">
          <mxGeometry y="164" width="410" height="26" as="geometry" />
        </mxCell>
        <mxCell id="rX2V7xrSRh4awxG6ETd--9" value="+ inverse(): Pose" style="text;strokeColor=none;fillColor=none;align=left;verticalAlign=top;spacingLeft=4;spacingRight=4;overflow=hidden;rotatable=0;points=[[0,0.5],[1,0.5]];portConstraint=eastwest;" vertex="1" parent="rX2V7xrSRh4awxG6ETd--1">
          <mxGeometry y="190" width="410" height="26" as="geometry" />
        </mxCell>
        <mxCell id="rX2V7xrSRh4awxG6ETd--10" value="+ operator*(other: Pose): Pose" style="text;strokeColor=none;fillColor=none;align=left;verticalAlign=top;spacingLeft=4;spacingRight=4;overflow=hidden;rotatable=0;points=[[0,0.5],[1,0.5]];portConstraint=eastwest;" vertex="1" parent="rX2V7xrSRh4awxG6ETd--1">
          <mxGeometry y="216" width="410" height="26" as="geometry" />
        </mxCell>
        <mxCell id="rX2V7xrSRh4awxG6ETd--11" value="+ operator*(other: Eigen::Vector&lt;double, 3&gt;): Eigen::Vector&lt;double, 3&gt;" style="text;strokeColor=none;fillColor=none;align=left;verticalAlign=top;spacingLeft=4;spacingRight=4;overflow=hidden;rotatable=0;points=[[0,0.5],[1,0.5]];portConstraint=eastwest;" vertex="1" parent="rX2V7xrSRh4awxG6ETd--1">
          <mxGeometry y="242" width="410" height="26" as="geometry" />
        </mxCell>
        <mxCell id="rX2V7xrSRh4awxG6ETd--12" value="+ operator*=(other: Pose): void" style="text;strokeColor=none;fillColor=none;align=left;verticalAlign=top;spacingLeft=4;spacingRight=4;overflow=hidden;rotatable=0;points=[[0,0.5],[1,0.5]];portConstraint=eastwest;" vertex="1" parent="rX2V7xrSRh4awxG6ETd--1">
          <mxGeometry y="268" width="410" height="26" as="geometry" />
        </mxCell>
        <mxCell id="rX2V7xrSRh4awxG6ETd--13" value="+ quaternion(): Eigen::Quaterniond" style="text;strokeColor=none;fillColor=none;align=left;verticalAlign=top;spacingLeft=4;spacingRight=4;overflow=hidden;rotatable=0;points=[[0,0.5],[1,0.5]];portConstraint=eastwest;" vertex="1" parent="rX2V7xrSRh4awxG6ETd--1">
          <mxGeometry y="294" width="410" height="26" as="geometry" />
        </mxCell>
        <mxCell id="rX2V7xrSRh4awxG6ETd--14" value="+ rotation(): Eigen::Matrix3d" style="text;strokeColor=none;fillColor=none;align=left;verticalAlign=top;spacingLeft=4;spacingRight=4;overflow=hidden;rotatable=0;points=[[0,0.5],[1,0.5]];portConstraint=eastwest;" vertex="1" parent="rX2V7xrSRh4awxG6ETd--1">
          <mxGeometry y="320" width="410" height="26" as="geometry" />
        </mxCell>
        <mxCell id="rX2V7xrSRh4awxG6ETd--15" value="+ translation(): Eigen::Vector3d" style="text;strokeColor=none;fillColor=none;align=left;verticalAlign=top;spacingLeft=4;spacingRight=4;overflow=hidden;rotatable=0;points=[[0,0.5],[1,0.5]];portConstraint=eastwest;" vertex="1" parent="rX2V7xrSRh4awxG6ETd--1">
          <mxGeometry y="346" width="410" height="26" as="geometry" />
        </mxCell>
      </root>
    </mxGraphModel>
  </diagram>
  <diagram id="iKmTill0VvANNneIUwBa" name="Joint">
    <mxGraphModel dx="3422" dy="2295" grid="1" gridSize="10" guides="1" tooltips="1" connect="1" arrows="1" fold="1" page="1" pageScale="1" pageWidth="827" pageHeight="1169" math="0" shadow="0">
      <root>
        <mxCell id="0" />
        <mxCell id="1" parent="0" />
        <mxCell id="zmVMK8U2yirfh0wp7i4g-1" value="RobotLibrary::Model::Joint" style="swimlane;fontStyle=1;childLayout=stackLayout;horizontal=1;startSize=26;horizontalStack=0;resizeParent=1;resizeParentMax=0;resizeLast=0;collapsible=1;marginBottom=0;" vertex="1" parent="1">
          <mxGeometry x="-1640" y="-1040" width="1170" height="684" as="geometry" />
        </mxCell>
        <mxCell id="zmVMK8U2yirfh0wp7i4g-2" value="- _axis: Eigen::Vector&lt;double, 3&gt;" style="text;strokeColor=none;fillColor=none;align=left;verticalAlign=top;spacingLeft=4;spacingRight=4;overflow=hidden;rotatable=0;points=[[0,0.5],[1,0.5]];portConstraint=eastwest;" vertex="1" parent="zmVMK8U2yirfh0wp7i4g-1">
          <mxGeometry y="26" width="1170" height="26" as="geometry" />
        </mxCell>
        <mxCell id="zmVMK8U2yirfh0wp7i4g-3" value="- _damping: double" style="text;strokeColor=none;fillColor=none;align=left;verticalAlign=top;spacingLeft=4;spacingRight=4;overflow=hidden;rotatable=0;points=[[0,0.5],[1,0.5]];portConstraint=eastwest;" vertex="1" parent="zmVMK8U2yirfh0wp7i4g-1">
          <mxGeometry y="52" width="1170" height="26" as="geometry" />
        </mxCell>
        <mxCell id="zmVMK8U2yirfh0wp7i4g-4" value="- _effortLimit: double" style="text;strokeColor=none;fillColor=none;align=left;verticalAlign=top;spacingLeft=4;spacingRight=4;overflow=hidden;rotatable=0;points=[[0,0.5],[1,0.5]];portConstraint=eastwest;" vertex="1" parent="zmVMK8U2yirfh0wp7i4g-1">
          <mxGeometry y="78" width="1170" height="26" as="geometry" />
        </mxCell>
        <mxCell id="zmVMK8U2yirfh0wp7i4g-5" value="- _friction: double" style="text;strokeColor=none;fillColor=none;align=left;verticalAlign=top;spacingLeft=4;spacingRight=4;overflow=hidden;rotatable=0;points=[[0,0.5],[1,0.5]];portConstraint=eastwest;" vertex="1" parent="zmVMK8U2yirfh0wp7i4g-1">
          <mxGeometry y="104" width="1170" height="26" as="geometry" />
        </mxCell>
        <mxCell id="zmVMK8U2yirfh0wp7i4g-6" value="- _isFixed: bool" style="text;strokeColor=none;fillColor=none;align=left;verticalAlign=top;spacingLeft=4;spacingRight=4;overflow=hidden;rotatable=0;points=[[0,0.5],[1,0.5]];portConstraint=eastwest;" vertex="1" parent="zmVMK8U2yirfh0wp7i4g-1">
          <mxGeometry y="130" width="1170" height="26" as="geometry" />
        </mxCell>
        <mxCell id="zmVMK8U2yirfh0wp7i4g-7" value="- _isRevolute: bool" style="text;strokeColor=none;fillColor=none;align=left;verticalAlign=top;spacingLeft=4;spacingRight=4;overflow=hidden;rotatable=0;points=[[0,0.5],[1,0.5]];portConstraint=eastwest;" vertex="1" parent="zmVMK8U2yirfh0wp7i4g-1">
          <mxGeometry y="156" width="1170" height="26" as="geometry" />
        </mxCell>
        <mxCell id="zmVMK8U2yirfh0wp7i4g-8" value="- _name: string" style="text;strokeColor=none;fillColor=none;align=left;verticalAlign=top;spacingLeft=4;spacingRight=4;overflow=hidden;rotatable=0;points=[[0,0.5],[1,0.5]];portConstraint=eastwest;" vertex="1" parent="zmVMK8U2yirfh0wp7i4g-1">
          <mxGeometry y="182" width="1170" height="26" as="geometry" />
        </mxCell>
        <mxCell id="zmVMK8U2yirfh0wp7i4g-9" value="- _origin: RobotLibrary::Model::Pose" style="text;strokeColor=none;fillColor=none;align=left;verticalAlign=top;spacingLeft=4;spacingRight=4;overflow=hidden;rotatable=0;points=[[0,0.5],[1,0.5]];portConstraint=eastwest;" vertex="1" parent="zmVMK8U2yirfh0wp7i4g-1">
          <mxGeometry y="208" width="1170" height="26" as="geometry" />
        </mxCell>
        <mxCell id="zmVMK8U2yirfh0wp7i4g-10" value="- _positionLimit: RobotLibrary::Model::Limits" style="text;strokeColor=none;fillColor=none;align=left;verticalAlign=top;spacingLeft=4;spacingRight=4;overflow=hidden;rotatable=0;points=[[0,0.5],[1,0.5]];portConstraint=eastwest;" vertex="1" parent="zmVMK8U2yirfh0wp7i4g-1">
          <mxGeometry y="234" width="1170" height="26" as="geometry" />
        </mxCell>
        <mxCell id="zmVMK8U2yirfh0wp7i4g-11" value="- _speedLimit: double" style="text;strokeColor=none;fillColor=none;align=left;verticalAlign=top;spacingLeft=4;spacingRight=4;overflow=hidden;rotatable=0;points=[[0,0.5],[1,0.5]];portConstraint=eastwest;" vertex="1" parent="zmVMK8U2yirfh0wp7i4g-1">
          <mxGeometry y="260" width="1170" height="26" as="geometry" />
        </mxCell>
        <mxCell id="zmVMK8U2yirfh0wp7i4g-12" value="- _type: string" style="text;strokeColor=none;fillColor=none;align=left;verticalAlign=top;spacingLeft=4;spacingRight=4;overflow=hidden;rotatable=0;points=[[0,0.5],[1,0.5]];portConstraint=eastwest;" vertex="1" parent="zmVMK8U2yirfh0wp7i4g-1">
          <mxGeometry y="286" width="1170" height="26" as="geometry" />
        </mxCell>
        <mxCell id="zmVMK8U2yirfh0wp7i4g-13" value="" style="line;strokeWidth=1;fillColor=none;align=left;verticalAlign=middle;spacingTop=-1;spacingLeft=3;spacingRight=3;rotatable=0;labelPosition=right;points=[];portConstraint=eastwest;" vertex="1" parent="zmVMK8U2yirfh0wp7i4g-1">
          <mxGeometry y="312" width="1170" height="8" as="geometry" />
        </mxCell>
        <mxCell id="zmVMK8U2yirfh0wp7i4g-14" value="+ Joint(name: string, type: string, axis: Eigen::Vector&lt;double, 3&gt;, positionLimit: RobotLibrary::Model::Limits)" style="text;strokeColor=none;fillColor=none;align=left;verticalAlign=top;spacingLeft=4;spacingRight=4;overflow=hidden;rotatable=0;points=[[0,0.5],[1,0.5]];portConstraint=eastwest;" vertex="1" parent="zmVMK8U2yirfh0wp7i4g-1">
          <mxGeometry y="320" width="1170" height="26" as="geometry" />
        </mxCell>
        <mxCell id="zmVMK8U2yirfh0wp7i4g-15" value="+ Joint(name: string, type: string, axis: Eigen::Vector&lt;double, 3&gt;, origin: RobotLibrary::Model::Pose, positionLimit: RobotLibrary::Model::Limits, speedLimit: double, effortLimit: double, damping: double, friction: double)" style="text;strokeColor=none;fillColor=none;align=left;verticalAlign=top;spacingLeft=4;spacingRight=4;overflow=hidden;rotatable=0;points=[[0,0.5],[1,0.5]];portConstraint=eastwest;" vertex="1" parent="zmVMK8U2yirfh0wp7i4g-1">
          <mxGeometry y="346" width="1170" height="26" as="geometry" />
        </mxCell>
        <mxCell id="zmVMK8U2yirfh0wp7i4g-16" value="+ damping(): double" style="text;strokeColor=none;fillColor=none;align=left;verticalAlign=top;spacingLeft=4;spacingRight=4;overflow=hidden;rotatable=0;points=[[0,0.5],[1,0.5]];portConstraint=eastwest;" vertex="1" parent="zmVMK8U2yirfh0wp7i4g-1">
          <mxGeometry y="372" width="1170" height="26" as="geometry" />
        </mxCell>
        <mxCell id="zmVMK8U2yirfh0wp7i4g-17" value="+ effort_limit(): double" style="text;strokeColor=none;fillColor=none;align=left;verticalAlign=top;spacingLeft=4;spacingRight=4;overflow=hidden;rotatable=0;points=[[0,0.5],[1,0.5]];portConstraint=eastwest;" vertex="1" parent="zmVMK8U2yirfh0wp7i4g-1">
          <mxGeometry y="398" width="1170" height="26" as="geometry" />
        </mxCell>
        <mxCell id="zmVMK8U2yirfh0wp7i4g-18" value="+ extend_origin(other: RobotLibrary::Model::Pose): void" style="text;strokeColor=none;fillColor=none;align=left;verticalAlign=top;spacingLeft=4;spacingRight=4;overflow=hidden;rotatable=0;points=[[0,0.5],[1,0.5]];portConstraint=eastwest;" vertex="1" parent="zmVMK8U2yirfh0wp7i4g-1">
          <mxGeometry y="424" width="1170" height="26" as="geometry" />
        </mxCell>
        <mxCell id="zmVMK8U2yirfh0wp7i4g-19" value="+ is_fixed(): bool" style="text;strokeColor=none;fillColor=none;align=left;verticalAlign=top;spacingLeft=4;spacingRight=4;overflow=hidden;rotatable=0;points=[[0,0.5],[1,0.5]];portConstraint=eastwest;" vertex="1" parent="zmVMK8U2yirfh0wp7i4g-1">
          <mxGeometry y="450" width="1170" height="26" as="geometry" />
        </mxCell>
        <mxCell id="zmVMK8U2yirfh0wp7i4g-20" value="+ is_prismatic(): bool" style="text;strokeColor=none;fillColor=none;align=left;verticalAlign=top;spacingLeft=4;spacingRight=4;overflow=hidden;rotatable=0;points=[[0,0.5],[1,0.5]];portConstraint=eastwest;" vertex="1" parent="zmVMK8U2yirfh0wp7i4g-1">
          <mxGeometry y="476" width="1170" height="26" as="geometry" />
        </mxCell>
        <mxCell id="zmVMK8U2yirfh0wp7i4g-21" value="+ is_revolute(): bool" style="text;strokeColor=none;fillColor=none;align=left;verticalAlign=top;spacingLeft=4;spacingRight=4;overflow=hidden;rotatable=0;points=[[0,0.5],[1,0.5]];portConstraint=eastwest;" vertex="1" parent="zmVMK8U2yirfh0wp7i4g-1">
          <mxGeometry y="502" width="1170" height="26" as="geometry" />
        </mxCell>
        <mxCell id="zmVMK8U2yirfh0wp7i4g-22" value="+ name(): string" style="text;strokeColor=none;fillColor=none;align=left;verticalAlign=top;spacingLeft=4;spacingRight=4;overflow=hidden;rotatable=0;points=[[0,0.5],[1,0.5]];portConstraint=eastwest;" vertex="1" parent="zmVMK8U2yirfh0wp7i4g-1">
          <mxGeometry y="528" width="1170" height="26" as="geometry" />
        </mxCell>
        <mxCell id="zmVMK8U2yirfh0wp7i4g-23" value="+ origin(): RobotLibrary::Model::Pose" style="text;strokeColor=none;fillColor=none;align=left;verticalAlign=top;spacingLeft=4;spacingRight=4;overflow=hidden;rotatable=0;points=[[0,0.5],[1,0.5]];portConstraint=eastwest;" vertex="1" parent="zmVMK8U2yirfh0wp7i4g-1">
          <mxGeometry y="554" width="1170" height="26" as="geometry" />
        </mxCell>
        <mxCell id="zmVMK8U2yirfh0wp7i4g-24" value="+ position_limits(): RobotLibrary::Model::Limits" style="text;strokeColor=none;fillColor=none;align=left;verticalAlign=top;spacingLeft=4;spacingRight=4;overflow=hidden;rotatable=0;points=[[0,0.5],[1,0.5]];portConstraint=eastwest;" vertex="1" parent="zmVMK8U2yirfh0wp7i4g-1">
          <mxGeometry y="580" width="1170" height="26" as="geometry" />
        </mxCell>
        <mxCell id="zmVMK8U2yirfh0wp7i4g-25" value="+ position_offset(position: double): RobotLibrary::Model::Pose" style="text;strokeColor=none;fillColor=none;align=left;verticalAlign=top;spacingLeft=4;spacingRight=4;overflow=hidden;rotatable=0;points=[[0,0.5],[1,0.5]];portConstraint=eastwest;" vertex="1" parent="zmVMK8U2yirfh0wp7i4g-1">
          <mxGeometry y="606" width="1170" height="26" as="geometry" />
        </mxCell>
        <mxCell id="zmVMK8U2yirfh0wp7i4g-26" value="+ speed_limit(): double" style="text;strokeColor=none;fillColor=none;align=left;verticalAlign=top;spacingLeft=4;spacingRight=4;overflow=hidden;rotatable=0;points=[[0,0.5],[1,0.5]];portConstraint=eastwest;" vertex="1" parent="zmVMK8U2yirfh0wp7i4g-1">
          <mxGeometry y="632" width="1170" height="26" as="geometry" />
        </mxCell>
        <mxCell id="zmVMK8U2yirfh0wp7i4g-27" value="+ type(): string" style="text;strokeColor=none;fillColor=none;align=left;verticalAlign=top;spacingLeft=4;spacingRight=4;overflow=hidden;rotatable=0;points=[[0,0.5],[1,0.5]];portConstraint=eastwest;" vertex="1" parent="zmVMK8U2yirfh0wp7i4g-1">
          <mxGeometry y="658" width="1170" height="26" as="geometry" />
        </mxCell>
        <mxCell id="-GqNfS8lunn5-W6UAbR6-4" value="RobotLibrary::Model::Limits" style="swimlane;fontStyle=1;childLayout=stackLayout;horizontal=1;startSize=26;horizontalStack=0;resizeParent=1;resizeParentMax=0;resizeLast=0;collapsible=1;marginBottom=0;" vertex="1" collapsed="1" parent="1">
          <mxGeometry x="-1390" y="-1120" width="200" height="30" as="geometry">
            <mxRectangle x="-1410" y="-1150" width="200" height="78" as="alternateBounds" />
          </mxGeometry>
        </mxCell>
        <mxCell id="-GqNfS8lunn5-W6UAbR6-5" value="- lower: double" style="text;strokeColor=none;fillColor=none;align=left;verticalAlign=top;spacingLeft=4;spacingRight=4;overflow=hidden;rotatable=0;points=[[0,0.5],[1,0.5]];portConstraint=eastwest;" vertex="1" parent="-GqNfS8lunn5-W6UAbR6-4">
          <mxGeometry y="26" width="200" height="26" as="geometry" />
        </mxCell>
        <mxCell id="-GqNfS8lunn5-W6UAbR6-6" value="- upper: double" style="text;strokeColor=none;fillColor=none;align=left;verticalAlign=top;spacingLeft=4;spacingRight=4;overflow=hidden;rotatable=0;points=[[0,0.5],[1,0.5]];portConstraint=eastwest;" vertex="1" parent="-GqNfS8lunn5-W6UAbR6-4">
          <mxGeometry y="52" width="200" height="26" as="geometry" />
        </mxCell>
        <mxCell id="-Hup4qtLqLyAV6Wng1JW-1" value="RobotLibrary::Model::Pose" style="swimlane;fontStyle=1;childLayout=stackLayout;horizontal=1;startSize=26;horizontalStack=0;resizeParent=1;resizeParentMax=0;resizeLast=0;collapsible=1;marginBottom=0;" vertex="1" collapsed="1" parent="1">
          <mxGeometry x="-1140" y="-1120" width="200" height="30" as="geometry">
            <mxRectangle x="-940" y="-1460" width="410" height="372" as="alternateBounds" />
          </mxGeometry>
        </mxCell>
        <mxCell id="-Hup4qtLqLyAV6Wng1JW-2" value="- _quaternion: Eigen::Quaterniond" style="text;strokeColor=none;fillColor=none;align=left;verticalAlign=top;spacingLeft=4;spacingRight=4;overflow=hidden;rotatable=0;points=[[0,0.5],[1,0.5]];portConstraint=eastwest;" vertex="1" parent="-Hup4qtLqLyAV6Wng1JW-1">
          <mxGeometry y="26" width="410" height="26" as="geometry" />
        </mxCell>
        <mxCell id="-Hup4qtLqLyAV6Wng1JW-3" value="- _translation: Eigen::Vector3d" style="text;strokeColor=none;fillColor=none;align=left;verticalAlign=top;spacingLeft=4;spacingRight=4;overflow=hidden;rotatable=0;points=[[0,0.5],[1,0.5]];portConstraint=eastwest;" vertex="1" parent="-Hup4qtLqLyAV6Wng1JW-1">
          <mxGeometry y="52" width="410" height="26" as="geometry" />
        </mxCell>
        <mxCell id="-Hup4qtLqLyAV6Wng1JW-4" value="" style="line;strokeWidth=1;fillColor=none;align=left;verticalAlign=middle;spacingTop=-1;spacingLeft=3;spacingRight=3;rotatable=0;labelPosition=right;points=[];portConstraint=eastwest;" vertex="1" parent="-Hup4qtLqLyAV6Wng1JW-1">
          <mxGeometry y="78" width="410" height="8" as="geometry" />
        </mxCell>
        <mxCell id="-Hup4qtLqLyAV6Wng1JW-5" value="+ Pose()" style="text;strokeColor=none;fillColor=none;align=left;verticalAlign=top;spacingLeft=4;spacingRight=4;overflow=hidden;rotatable=0;points=[[0,0.5],[1,0.5]];portConstraint=eastwest;" vertex="1" parent="-Hup4qtLqLyAV6Wng1JW-1">
          <mxGeometry y="86" width="410" height="26" as="geometry" />
        </mxCell>
        <mxCell id="-Hup4qtLqLyAV6Wng1JW-6" value="+ Pose(translation: Eigen::Vector3d, quaternion: Eigen::Quaterniond)" style="text;strokeColor=none;fillColor=none;align=left;verticalAlign=top;spacingLeft=4;spacingRight=4;overflow=hidden;rotatable=0;points=[[0,0.5],[1,0.5]];portConstraint=eastwest;" vertex="1" parent="-Hup4qtLqLyAV6Wng1JW-1">
          <mxGeometry y="112" width="410" height="26" as="geometry" />
        </mxCell>
        <mxCell id="-Hup4qtLqLyAV6Wng1JW-7" value="+ as_matrix(): Eigen::Matrix4d" style="text;strokeColor=none;fillColor=none;align=left;verticalAlign=top;spacingLeft=4;spacingRight=4;overflow=hidden;rotatable=0;points=[[0,0.5],[1,0.5]];portConstraint=eastwest;" vertex="1" parent="-Hup4qtLqLyAV6Wng1JW-1">
          <mxGeometry y="138" width="410" height="26" as="geometry" />
        </mxCell>
        <mxCell id="-Hup4qtLqLyAV6Wng1JW-8" value="+ error(desired: Pose): Eigen::Vector&lt;double, 6&gt;" style="text;strokeColor=none;fillColor=none;align=left;verticalAlign=top;spacingLeft=4;spacingRight=4;overflow=hidden;rotatable=0;points=[[0,0.5],[1,0.5]];portConstraint=eastwest;" vertex="1" parent="-Hup4qtLqLyAV6Wng1JW-1">
          <mxGeometry y="164" width="410" height="26" as="geometry" />
        </mxCell>
        <mxCell id="-Hup4qtLqLyAV6Wng1JW-9" value="+ inverse(): Pose" style="text;strokeColor=none;fillColor=none;align=left;verticalAlign=top;spacingLeft=4;spacingRight=4;overflow=hidden;rotatable=0;points=[[0,0.5],[1,0.5]];portConstraint=eastwest;" vertex="1" parent="-Hup4qtLqLyAV6Wng1JW-1">
          <mxGeometry y="190" width="410" height="26" as="geometry" />
        </mxCell>
        <mxCell id="-Hup4qtLqLyAV6Wng1JW-10" value="+ operator*(other: Pose): Pose" style="text;strokeColor=none;fillColor=none;align=left;verticalAlign=top;spacingLeft=4;spacingRight=4;overflow=hidden;rotatable=0;points=[[0,0.5],[1,0.5]];portConstraint=eastwest;" vertex="1" parent="-Hup4qtLqLyAV6Wng1JW-1">
          <mxGeometry y="216" width="410" height="26" as="geometry" />
        </mxCell>
        <mxCell id="-Hup4qtLqLyAV6Wng1JW-11" value="+ operator*(other: Eigen::Vector&lt;double, 3&gt;): Eigen::Vector&lt;double, 3&gt;" style="text;strokeColor=none;fillColor=none;align=left;verticalAlign=top;spacingLeft=4;spacingRight=4;overflow=hidden;rotatable=0;points=[[0,0.5],[1,0.5]];portConstraint=eastwest;" vertex="1" parent="-Hup4qtLqLyAV6Wng1JW-1">
          <mxGeometry y="242" width="410" height="26" as="geometry" />
        </mxCell>
        <mxCell id="-Hup4qtLqLyAV6Wng1JW-12" value="+ operator*=(other: Pose): void" style="text;strokeColor=none;fillColor=none;align=left;verticalAlign=top;spacingLeft=4;spacingRight=4;overflow=hidden;rotatable=0;points=[[0,0.5],[1,0.5]];portConstraint=eastwest;" vertex="1" parent="-Hup4qtLqLyAV6Wng1JW-1">
          <mxGeometry y="268" width="410" height="26" as="geometry" />
        </mxCell>
        <mxCell id="-Hup4qtLqLyAV6Wng1JW-13" value="+ quaternion(): Eigen::Quaterniond" style="text;strokeColor=none;fillColor=none;align=left;verticalAlign=top;spacingLeft=4;spacingRight=4;overflow=hidden;rotatable=0;points=[[0,0.5],[1,0.5]];portConstraint=eastwest;" vertex="1" parent="-Hup4qtLqLyAV6Wng1JW-1">
          <mxGeometry y="294" width="410" height="26" as="geometry" />
        </mxCell>
        <mxCell id="-Hup4qtLqLyAV6Wng1JW-14" value="+ rotation(): Eigen::Matrix3d" style="text;strokeColor=none;fillColor=none;align=left;verticalAlign=top;spacingLeft=4;spacingRight=4;overflow=hidden;rotatable=0;points=[[0,0.5],[1,0.5]];portConstraint=eastwest;" vertex="1" parent="-Hup4qtLqLyAV6Wng1JW-1">
          <mxGeometry y="320" width="410" height="26" as="geometry" />
        </mxCell>
        <mxCell id="-Hup4qtLqLyAV6Wng1JW-15" value="+ translation(): Eigen::Vector3d" style="text;strokeColor=none;fillColor=none;align=left;verticalAlign=top;spacingLeft=4;spacingRight=4;overflow=hidden;rotatable=0;points=[[0,0.5],[1,0.5]];portConstraint=eastwest;" vertex="1" parent="-Hup4qtLqLyAV6Wng1JW-1">
          <mxGeometry y="346" width="410" height="26" as="geometry" />
        </mxCell>
        <mxCell id="-Hup4qtLqLyAV6Wng1JW-19" style="edgeStyle=orthogonalEdgeStyle;rounded=0;orthogonalLoop=1;jettySize=auto;html=1;exitX=0.5;exitY=1;exitDx=0;exitDy=0;entryX=0.299;entryY=-0.003;entryDx=0;entryDy=0;entryPerimeter=0;" edge="1" parent="1" source="-GqNfS8lunn5-W6UAbR6-4" target="zmVMK8U2yirfh0wp7i4g-1">
          <mxGeometry relative="1" as="geometry" />
        </mxCell>
        <mxCell id="-Hup4qtLqLyAV6Wng1JW-20" style="edgeStyle=orthogonalEdgeStyle;rounded=0;orthogonalLoop=1;jettySize=auto;html=1;exitX=0.5;exitY=1;exitDx=0;exitDy=0;entryX=0.513;entryY=0;entryDx=0;entryDy=0;entryPerimeter=0;" edge="1" parent="1" source="-Hup4qtLqLyAV6Wng1JW-1" target="zmVMK8U2yirfh0wp7i4g-1">
          <mxGeometry relative="1" as="geometry" />
        </mxCell>
      </root>
    </mxGraphModel>
  </diagram>
  <diagram id="_7xKwiFmqXDJvr1Xcc1u" name="RigidBody">
    <mxGraphModel dx="2917" dy="1973" grid="1" gridSize="10" guides="1" tooltips="1" connect="1" arrows="1" fold="1" page="1" pageScale="1" pageWidth="827" pageHeight="1169" math="0" shadow="0">
      <root>
        <mxCell id="0" />
        <mxCell id="1" parent="0" />
        <mxCell id="b7OTzigxbe03DAZnsZn--1" value="RobotLibrary::Model::RigidBody" style="swimlane;fontStyle=1;childLayout=stackLayout;horizontal=1;startSize=26;horizontalStack=0;resizeParent=1;resizeParentMax=0;resizeLast=0;collapsible=1;marginBottom=0;" vertex="1" parent="1">
          <mxGeometry x="-1600" y="-1070" width="550" height="554" as="geometry" />
        </mxCell>
        <mxCell id="b7OTzigxbe03DAZnsZn--2" value="- _centerOfMass: Eigen::Vector3d" style="text;strokeColor=none;fillColor=none;align=left;verticalAlign=top;spacingLeft=4;spacingRight=4;overflow=hidden;rotatable=0;points=[[0,0.5],[1,0.5]];portConstraint=eastwest;" vertex="1" parent="b7OTzigxbe03DAZnsZn--1">
          <mxGeometry y="26" width="550" height="26" as="geometry" />
        </mxCell>
        <mxCell id="b7OTzigxbe03DAZnsZn--3" value="- _inertia: Eigen::Matrix3d" style="text;strokeColor=none;fillColor=none;align=left;verticalAlign=top;spacingLeft=4;spacingRight=4;overflow=hidden;rotatable=0;points=[[0,0.5],[1,0.5]];portConstraint=eastwest;" vertex="1" parent="b7OTzigxbe03DAZnsZn--1">
          <mxGeometry y="52" width="550" height="26" as="geometry" />
        </mxCell>
        <mxCell id="b7OTzigxbe03DAZnsZn--4" value="- _inertiaDerivative: Eigen::Matrix3d" style="text;strokeColor=none;fillColor=none;align=left;verticalAlign=top;spacingLeft=4;spacingRight=4;overflow=hidden;rotatable=0;points=[[0,0.5],[1,0.5]];portConstraint=eastwest;" vertex="1" parent="b7OTzigxbe03DAZnsZn--1">
          <mxGeometry y="78" width="550" height="26" as="geometry" />
        </mxCell>
        <mxCell id="b7OTzigxbe03DAZnsZn--5" value="- _localCenterOfMass: Eigen::Vector3d" style="text;strokeColor=none;fillColor=none;align=left;verticalAlign=top;spacingLeft=4;spacingRight=4;overflow=hidden;rotatable=0;points=[[0,0.5],[1,0.5]];portConstraint=eastwest;" vertex="1" parent="b7OTzigxbe03DAZnsZn--1">
          <mxGeometry y="104" width="550" height="26" as="geometry" />
        </mxCell>
        <mxCell id="b7OTzigxbe03DAZnsZn--6" value="- _localInertia: Eigen::Matrix3d" style="text;strokeColor=none;fillColor=none;align=left;verticalAlign=top;spacingLeft=4;spacingRight=4;overflow=hidden;rotatable=0;points=[[0,0.5],[1,0.5]];portConstraint=eastwest;" vertex="1" parent="b7OTzigxbe03DAZnsZn--1">
          <mxGeometry y="130" width="550" height="26" as="geometry" />
        </mxCell>
        <mxCell id="b7OTzigxbe03DAZnsZn--7" value="- _mass: double" style="text;strokeColor=none;fillColor=none;align=left;verticalAlign=top;spacingLeft=4;spacingRight=4;overflow=hidden;rotatable=0;points=[[0,0.5],[1,0.5]];portConstraint=eastwest;" vertex="1" parent="b7OTzigxbe03DAZnsZn--1">
          <mxGeometry y="156" width="550" height="26" as="geometry" />
        </mxCell>
        <mxCell id="b7OTzigxbe03DAZnsZn--8" value="- _name: string" style="text;strokeColor=none;fillColor=none;align=left;verticalAlign=top;spacingLeft=4;spacingRight=4;overflow=hidden;rotatable=0;points=[[0,0.5],[1,0.5]];portConstraint=eastwest;" vertex="1" parent="b7OTzigxbe03DAZnsZn--1">
          <mxGeometry y="182" width="550" height="26" as="geometry" />
        </mxCell>
        <mxCell id="b7OTzigxbe03DAZnsZn--9" value="- _pose: RobotLibrary::Model::Pose" style="text;strokeColor=none;fillColor=none;align=left;verticalAlign=top;spacingLeft=4;spacingRight=4;overflow=hidden;rotatable=0;points=[[0,0.5],[1,0.5]];portConstraint=eastwest;" vertex="1" parent="b7OTzigxbe03DAZnsZn--1">
          <mxGeometry y="208" width="550" height="26" as="geometry" />
        </mxCell>
        <mxCell id="b7OTzigxbe03DAZnsZn--10" value="- _twist: Eigen::Vector&lt;double, 6&gt;" style="text;strokeColor=none;fillColor=none;align=left;verticalAlign=top;spacingLeft=4;spacingRight=4;overflow=hidden;rotatable=0;points=[[0,0.5],[1,0.5]];portConstraint=eastwest;" vertex="1" parent="b7OTzigxbe03DAZnsZn--1">
          <mxGeometry y="234" width="550" height="26" as="geometry" />
        </mxCell>
        <mxCell id="b7OTzigxbe03DAZnsZn--11" value="" style="line;strokeWidth=1;fillColor=none;align=left;verticalAlign=middle;spacingTop=-1;spacingLeft=3;spacingRight=3;rotatable=0;labelPosition=right;points=[];portConstraint=eastwest;" vertex="1" parent="b7OTzigxbe03DAZnsZn--1">
          <mxGeometry y="260" width="550" height="8" as="geometry" />
        </mxCell>
        <mxCell id="b7OTzigxbe03DAZnsZn--12" value="+ RigidBody()" style="text;strokeColor=none;fillColor=none;align=left;verticalAlign=top;spacingLeft=4;spacingRight=4;overflow=hidden;rotatable=0;points=[[0,0.5],[1,0.5]];portConstraint=eastwest;" vertex="1" parent="b7OTzigxbe03DAZnsZn--1">
          <mxGeometry y="268" width="550" height="26" as="geometry" />
        </mxCell>
        <mxCell id="b7OTzigxbe03DAZnsZn--13" value="+ RigidBody(name: string, mass: double, inertia: Eigen::Matrix3d, centerOfMass: Eigen::Vector3d)" style="text;strokeColor=none;fillColor=none;align=left;verticalAlign=top;spacingLeft=4;spacingRight=4;overflow=hidden;rotatable=0;points=[[0,0.5],[1,0.5]];portConstraint=eastwest;" vertex="1" parent="b7OTzigxbe03DAZnsZn--1">
          <mxGeometry y="294" width="550" height="26" as="geometry" />
        </mxCell>
        <mxCell id="b7OTzigxbe03DAZnsZn--14" value="+ center_of_mass(): Eigen::Vector3d" style="text;strokeColor=none;fillColor=none;align=left;verticalAlign=top;spacingLeft=4;spacingRight=4;overflow=hidden;rotatable=0;points=[[0,0.5],[1,0.5]];portConstraint=eastwest;" vertex="1" parent="b7OTzigxbe03DAZnsZn--1">
          <mxGeometry y="320" width="550" height="26" as="geometry" />
        </mxCell>
        <mxCell id="b7OTzigxbe03DAZnsZn--15" value="+ combine_inertia(other: RigidBody, pose: RobotLibrary::Model::Pose): void" style="text;strokeColor=none;fillColor=none;align=left;verticalAlign=top;spacingLeft=4;spacingRight=4;overflow=hidden;rotatable=0;points=[[0,0.5],[1,0.5]];portConstraint=eastwest;" vertex="1" parent="b7OTzigxbe03DAZnsZn--1">
          <mxGeometry y="346" width="550" height="26" as="geometry" />
        </mxCell>
        <mxCell id="b7OTzigxbe03DAZnsZn--16" value="+ inertia(): Eigen::Matrix3d" style="text;strokeColor=none;fillColor=none;align=left;verticalAlign=top;spacingLeft=4;spacingRight=4;overflow=hidden;rotatable=0;points=[[0,0.5],[1,0.5]];portConstraint=eastwest;" vertex="1" parent="b7OTzigxbe03DAZnsZn--1">
          <mxGeometry y="372" width="550" height="26" as="geometry" />
        </mxCell>
        <mxCell id="b7OTzigxbe03DAZnsZn--17" value="+ inertia_derivative(): Eigen::Matrix3d" style="text;strokeColor=none;fillColor=none;align=left;verticalAlign=top;spacingLeft=4;spacingRight=4;overflow=hidden;rotatable=0;points=[[0,0.5],[1,0.5]];portConstraint=eastwest;" vertex="1" parent="b7OTzigxbe03DAZnsZn--1">
          <mxGeometry y="398" width="550" height="26" as="geometry" />
        </mxCell>
        <mxCell id="b7OTzigxbe03DAZnsZn--18" value="+ mass(): double" style="text;strokeColor=none;fillColor=none;align=left;verticalAlign=top;spacingLeft=4;spacingRight=4;overflow=hidden;rotatable=0;points=[[0,0.5],[1,0.5]];portConstraint=eastwest;" vertex="1" parent="b7OTzigxbe03DAZnsZn--1">
          <mxGeometry y="424" width="550" height="26" as="geometry" />
        </mxCell>
        <mxCell id="b7OTzigxbe03DAZnsZn--19" value="+ name(): string" style="text;strokeColor=none;fillColor=none;align=left;verticalAlign=top;spacingLeft=4;spacingRight=4;overflow=hidden;rotatable=0;points=[[0,0.5],[1,0.5]];portConstraint=eastwest;" vertex="1" parent="b7OTzigxbe03DAZnsZn--1">
          <mxGeometry y="450" width="550" height="26" as="geometry" />
        </mxCell>
        <mxCell id="b7OTzigxbe03DAZnsZn--20" value="+ pose(): RobotLibrary::Model::Pose" style="text;strokeColor=none;fillColor=none;align=left;verticalAlign=top;spacingLeft=4;spacingRight=4;overflow=hidden;rotatable=0;points=[[0,0.5],[1,0.5]];portConstraint=eastwest;" vertex="1" parent="b7OTzigxbe03DAZnsZn--1">
          <mxGeometry y="476" width="550" height="26" as="geometry" />
        </mxCell>
        <mxCell id="b7OTzigxbe03DAZnsZn--21" value="+ twist(): Eigen::Vector&lt;double, 6&gt;" style="text;strokeColor=none;fillColor=none;align=left;verticalAlign=top;spacingLeft=4;spacingRight=4;overflow=hidden;rotatable=0;points=[[0,0.5],[1,0.5]];portConstraint=eastwest;" vertex="1" parent="b7OTzigxbe03DAZnsZn--1">
          <mxGeometry y="502" width="550" height="26" as="geometry" />
        </mxCell>
        <mxCell id="b7OTzigxbe03DAZnsZn--22" value="+ update_state(pose: RobotLibrary::Model::Pose, twist: Eigen::Vector&lt;double, 6&gt;): void" style="text;strokeColor=none;fillColor=none;align=left;verticalAlign=top;spacingLeft=4;spacingRight=4;overflow=hidden;rotatable=0;points=[[0,0.5],[1,0.5]];portConstraint=eastwest;" vertex="1" parent="b7OTzigxbe03DAZnsZn--1">
          <mxGeometry y="528" width="550" height="26" as="geometry" />
        </mxCell>
        <mxCell id="y7cm67BeFi9Q6ZcIJEFT-16" style="edgeStyle=orthogonalEdgeStyle;rounded=0;orthogonalLoop=1;jettySize=auto;html=1;exitX=0.5;exitY=1;exitDx=0;exitDy=0;entryX=0.5;entryY=0;entryDx=0;entryDy=0;" edge="1" parent="1" source="y7cm67BeFi9Q6ZcIJEFT-1" target="b7OTzigxbe03DAZnsZn--1">
          <mxGeometry relative="1" as="geometry" />
        </mxCell>
        <mxCell id="y7cm67BeFi9Q6ZcIJEFT-1" value="RobotLibrary::Model::Pose" style="swimlane;fontStyle=1;childLayout=stackLayout;horizontal=1;startSize=26;horizontalStack=0;resizeParent=1;resizeParentMax=0;resizeLast=0;collapsible=1;marginBottom=0;" vertex="1" collapsed="1" parent="1">
          <mxGeometry x="-1425" y="-1140" width="200" height="30" as="geometry">
            <mxRectangle x="-940" y="-1460" width="410" height="372" as="alternateBounds" />
          </mxGeometry>
        </mxCell>
        <mxCell id="y7cm67BeFi9Q6ZcIJEFT-2" value="- _quaternion: Eigen::Quaterniond" style="text;strokeColor=none;fillColor=none;align=left;verticalAlign=top;spacingLeft=4;spacingRight=4;overflow=hidden;rotatable=0;points=[[0,0.5],[1,0.5]];portConstraint=eastwest;" vertex="1" parent="y7cm67BeFi9Q6ZcIJEFT-1">
          <mxGeometry y="26" width="410" height="26" as="geometry" />
        </mxCell>
        <mxCell id="y7cm67BeFi9Q6ZcIJEFT-3" value="- _translation: Eigen::Vector3d" style="text;strokeColor=none;fillColor=none;align=left;verticalAlign=top;spacingLeft=4;spacingRight=4;overflow=hidden;rotatable=0;points=[[0,0.5],[1,0.5]];portConstraint=eastwest;" vertex="1" parent="y7cm67BeFi9Q6ZcIJEFT-1">
          <mxGeometry y="52" width="410" height="26" as="geometry" />
        </mxCell>
        <mxCell id="y7cm67BeFi9Q6ZcIJEFT-4" value="" style="line;strokeWidth=1;fillColor=none;align=left;verticalAlign=middle;spacingTop=-1;spacingLeft=3;spacingRight=3;rotatable=0;labelPosition=right;points=[];portConstraint=eastwest;" vertex="1" parent="y7cm67BeFi9Q6ZcIJEFT-1">
          <mxGeometry y="78" width="410" height="8" as="geometry" />
        </mxCell>
        <mxCell id="y7cm67BeFi9Q6ZcIJEFT-5" value="+ Pose()" style="text;strokeColor=none;fillColor=none;align=left;verticalAlign=top;spacingLeft=4;spacingRight=4;overflow=hidden;rotatable=0;points=[[0,0.5],[1,0.5]];portConstraint=eastwest;" vertex="1" parent="y7cm67BeFi9Q6ZcIJEFT-1">
          <mxGeometry y="86" width="410" height="26" as="geometry" />
        </mxCell>
        <mxCell id="y7cm67BeFi9Q6ZcIJEFT-6" value="+ Pose(translation: Eigen::Vector3d, quaternion: Eigen::Quaterniond)" style="text;strokeColor=none;fillColor=none;align=left;verticalAlign=top;spacingLeft=4;spacingRight=4;overflow=hidden;rotatable=0;points=[[0,0.5],[1,0.5]];portConstraint=eastwest;" vertex="1" parent="y7cm67BeFi9Q6ZcIJEFT-1">
          <mxGeometry y="112" width="410" height="26" as="geometry" />
        </mxCell>
        <mxCell id="y7cm67BeFi9Q6ZcIJEFT-7" value="+ as_matrix(): Eigen::Matrix4d" style="text;strokeColor=none;fillColor=none;align=left;verticalAlign=top;spacingLeft=4;spacingRight=4;overflow=hidden;rotatable=0;points=[[0,0.5],[1,0.5]];portConstraint=eastwest;" vertex="1" parent="y7cm67BeFi9Q6ZcIJEFT-1">
          <mxGeometry y="138" width="410" height="26" as="geometry" />
        </mxCell>
        <mxCell id="y7cm67BeFi9Q6ZcIJEFT-8" value="+ error(desired: Pose): Eigen::Vector&lt;double, 6&gt;" style="text;strokeColor=none;fillColor=none;align=left;verticalAlign=top;spacingLeft=4;spacingRight=4;overflow=hidden;rotatable=0;points=[[0,0.5],[1,0.5]];portConstraint=eastwest;" vertex="1" parent="y7cm67BeFi9Q6ZcIJEFT-1">
          <mxGeometry y="164" width="410" height="26" as="geometry" />
        </mxCell>
        <mxCell id="y7cm67BeFi9Q6ZcIJEFT-9" value="+ inverse(): Pose" style="text;strokeColor=none;fillColor=none;align=left;verticalAlign=top;spacingLeft=4;spacingRight=4;overflow=hidden;rotatable=0;points=[[0,0.5],[1,0.5]];portConstraint=eastwest;" vertex="1" parent="y7cm67BeFi9Q6ZcIJEFT-1">
          <mxGeometry y="190" width="410" height="26" as="geometry" />
        </mxCell>
        <mxCell id="y7cm67BeFi9Q6ZcIJEFT-10" value="+ operator*(other: Pose): Pose" style="text;strokeColor=none;fillColor=none;align=left;verticalAlign=top;spacingLeft=4;spacingRight=4;overflow=hidden;rotatable=0;points=[[0,0.5],[1,0.5]];portConstraint=eastwest;" vertex="1" parent="y7cm67BeFi9Q6ZcIJEFT-1">
          <mxGeometry y="216" width="410" height="26" as="geometry" />
        </mxCell>
        <mxCell id="y7cm67BeFi9Q6ZcIJEFT-11" value="+ operator*(other: Eigen::Vector&lt;double, 3&gt;): Eigen::Vector&lt;double, 3&gt;" style="text;strokeColor=none;fillColor=none;align=left;verticalAlign=top;spacingLeft=4;spacingRight=4;overflow=hidden;rotatable=0;points=[[0,0.5],[1,0.5]];portConstraint=eastwest;" vertex="1" parent="y7cm67BeFi9Q6ZcIJEFT-1">
          <mxGeometry y="242" width="410" height="26" as="geometry" />
        </mxCell>
        <mxCell id="y7cm67BeFi9Q6ZcIJEFT-12" value="+ operator*=(other: Pose): void" style="text;strokeColor=none;fillColor=none;align=left;verticalAlign=top;spacingLeft=4;spacingRight=4;overflow=hidden;rotatable=0;points=[[0,0.5],[1,0.5]];portConstraint=eastwest;" vertex="1" parent="y7cm67BeFi9Q6ZcIJEFT-1">
          <mxGeometry y="268" width="410" height="26" as="geometry" />
        </mxCell>
        <mxCell id="y7cm67BeFi9Q6ZcIJEFT-13" value="+ quaternion(): Eigen::Quaterniond" style="text;strokeColor=none;fillColor=none;align=left;verticalAlign=top;spacingLeft=4;spacingRight=4;overflow=hidden;rotatable=0;points=[[0,0.5],[1,0.5]];portConstraint=eastwest;" vertex="1" parent="y7cm67BeFi9Q6ZcIJEFT-1">
          <mxGeometry y="294" width="410" height="26" as="geometry" />
        </mxCell>
        <mxCell id="y7cm67BeFi9Q6ZcIJEFT-14" value="+ rotation(): Eigen::Matrix3d" style="text;strokeColor=none;fillColor=none;align=left;verticalAlign=top;spacingLeft=4;spacingRight=4;overflow=hidden;rotatable=0;points=[[0,0.5],[1,0.5]];portConstraint=eastwest;" vertex="1" parent="y7cm67BeFi9Q6ZcIJEFT-1">
          <mxGeometry y="320" width="410" height="26" as="geometry" />
        </mxCell>
        <mxCell id="y7cm67BeFi9Q6ZcIJEFT-15" value="+ translation(): Eigen::Vector3d" style="text;strokeColor=none;fillColor=none;align=left;verticalAlign=top;spacingLeft=4;spacingRight=4;overflow=hidden;rotatable=0;points=[[0,0.5],[1,0.5]];portConstraint=eastwest;" vertex="1" parent="y7cm67BeFi9Q6ZcIJEFT-1">
          <mxGeometry y="346" width="410" height="26" as="geometry" />
        </mxCell>
      </root>
    </mxGraphModel>
  </diagram>
  <diagram id="0cUg6tPBCGI_Aj0qkfBr" name="Link">
    <mxGraphModel dx="2538" dy="1732" grid="1" gridSize="10" guides="1" tooltips="1" connect="1" arrows="1" fold="1" page="1" pageScale="1" pageWidth="827" pageHeight="1169" math="0" shadow="0">
      <root>
        <mxCell id="0" />
        <mxCell id="1" parent="0" />
        <mxCell id="C3e3Mf71zj82oEzfNdOF-1" value="RobotLibrary::Model::Link" style="swimlane;fontStyle=1;childLayout=stackLayout;horizontal=1;startSize=26;horizontalStack=0;resizeParent=1;resizeParentMax=0;resizeLast=0;collapsible=1;marginBottom=0;" vertex="1" parent="1">
          <mxGeometry x="-1630" y="-1070" width="700" height="476" as="geometry" />
        </mxCell>
        <mxCell id="C3e3Mf71zj82oEzfNdOF-2" value="- _childLinks: std::vector&lt;Link*&gt;" style="text;strokeColor=none;fillColor=none;align=left;verticalAlign=top;spacingLeft=4;spacingRight=4;overflow=hidden;rotatable=0;points=[[0,0.5],[1,0.5]];portConstraint=eastwest;" vertex="1" parent="C3e3Mf71zj82oEzfNdOF-1">
          <mxGeometry y="26" width="700" height="26" as="geometry" />
        </mxCell>
        <mxCell id="C3e3Mf71zj82oEzfNdOF-3" value="- _joint: RobotLibrary::Model::Joint" style="text;strokeColor=none;fillColor=none;align=left;verticalAlign=top;spacingLeft=4;spacingRight=4;overflow=hidden;rotatable=0;points=[[0,0.5],[1,0.5]];portConstraint=eastwest;" vertex="1" parent="C3e3Mf71zj82oEzfNdOF-1">
          <mxGeometry y="52" width="700" height="26" as="geometry" />
        </mxCell>
        <mxCell id="C3e3Mf71zj82oEzfNdOF-4" value="- _jointAxis: Eigen::Vector3d" style="text;strokeColor=none;fillColor=none;align=left;verticalAlign=top;spacingLeft=4;spacingRight=4;overflow=hidden;rotatable=0;points=[[0,0.5],[1,0.5]];portConstraint=eastwest;" vertex="1" parent="C3e3Mf71zj82oEzfNdOF-1">
          <mxGeometry y="78" width="700" height="26" as="geometry" />
        </mxCell>
        <mxCell id="C3e3Mf71zj82oEzfNdOF-5" value="- _number: unsigned int" style="text;strokeColor=none;fillColor=none;align=left;verticalAlign=top;spacingLeft=4;spacingRight=4;overflow=hidden;rotatable=0;points=[[0,0.5],[1,0.5]];portConstraint=eastwest;" vertex="1" parent="C3e3Mf71zj82oEzfNdOF-1">
          <mxGeometry y="104" width="700" height="26" as="geometry" />
        </mxCell>
        <mxCell id="C3e3Mf71zj82oEzfNdOF-6" value="- _parentLink: Link*" style="text;strokeColor=none;fillColor=none;align=left;verticalAlign=top;spacingLeft=4;spacingRight=4;overflow=hidden;rotatable=0;points=[[0,0.5],[1,0.5]];portConstraint=eastwest;" vertex="1" parent="C3e3Mf71zj82oEzfNdOF-1">
          <mxGeometry y="130" width="700" height="26" as="geometry" />
        </mxCell>
        <mxCell id="C3e3Mf71zj82oEzfNdOF-7" value="" style="line;strokeWidth=1;fillColor=none;align=left;verticalAlign=middle;spacingTop=-1;spacingLeft=3;spacingRight=3;rotatable=0;labelPosition=right;points=[];portConstraint=eastwest;" vertex="1" parent="C3e3Mf71zj82oEzfNdOF-1">
          <mxGeometry y="156" width="700" height="8" as="geometry" />
        </mxCell>
        <mxCell id="C3e3Mf71zj82oEzfNdOF-8" value="+ Link(rigidBody: RobotLibrary::Model::RigidBody, joint: RobotLibrary::Model::Joint)" style="text;strokeColor=none;fillColor=none;align=left;verticalAlign=top;spacingLeft=4;spacingRight=4;overflow=hidden;rotatable=0;points=[[0,0.5],[1,0.5]];portConstraint=eastwest;" vertex="1" parent="C3e3Mf71zj82oEzfNdOF-1">
          <mxGeometry y="164" width="700" height="26" as="geometry" />
        </mxCell>
        <mxCell id="C3e3Mf71zj82oEzfNdOF-9" value="+ add_child_link(child: Link*): bool" style="text;strokeColor=none;fillColor=none;align=left;verticalAlign=top;spacingLeft=4;spacingRight=4;overflow=hidden;rotatable=0;points=[[0,0.5],[1,0.5]];portConstraint=eastwest;" vertex="1" parent="C3e3Mf71zj82oEzfNdOF-1">
          <mxGeometry y="190" width="700" height="26" as="geometry" />
        </mxCell>
        <mxCell id="C3e3Mf71zj82oEzfNdOF-10" value="+ clear_parent_link(): void" style="text;strokeColor=none;fillColor=none;align=left;verticalAlign=top;spacingLeft=4;spacingRight=4;overflow=hidden;rotatable=0;points=[[0,0.5],[1,0.5]];portConstraint=eastwest;" vertex="1" parent="C3e3Mf71zj82oEzfNdOF-1">
          <mxGeometry y="216" width="700" height="26" as="geometry" />
        </mxCell>
        <mxCell id="C3e3Mf71zj82oEzfNdOF-11" value="+ joint(): RobotLibrary::Model::Joint" style="text;strokeColor=none;fillColor=none;align=left;verticalAlign=top;spacingLeft=4;spacingRight=4;overflow=hidden;rotatable=0;points=[[0,0.5],[1,0.5]];portConstraint=eastwest;" vertex="1" parent="C3e3Mf71zj82oEzfNdOF-1">
          <mxGeometry y="242" width="700" height="26" as="geometry" />
        </mxCell>
        <mxCell id="C3e3Mf71zj82oEzfNdOF-12" value="+ joint_axis(): Eigen::Vector3d" style="text;strokeColor=none;fillColor=none;align=left;verticalAlign=top;spacingLeft=4;spacingRight=4;overflow=hidden;rotatable=0;points=[[0,0.5],[1,0.5]];portConstraint=eastwest;" vertex="1" parent="C3e3Mf71zj82oEzfNdOF-1">
          <mxGeometry y="268" width="700" height="26" as="geometry" />
        </mxCell>
        <mxCell id="C3e3Mf71zj82oEzfNdOF-13" value="+ merge(otherLink: Link): void" style="text;strokeColor=none;fillColor=none;align=left;verticalAlign=top;spacingLeft=4;spacingRight=4;overflow=hidden;rotatable=0;points=[[0,0.5],[1,0.5]];portConstraint=eastwest;" vertex="1" parent="C3e3Mf71zj82oEzfNdOF-1">
          <mxGeometry y="294" width="700" height="26" as="geometry" />
        </mxCell>
        <mxCell id="C3e3Mf71zj82oEzfNdOF-14" value="+ number(): unsigned int" style="text;strokeColor=none;fillColor=none;align=left;verticalAlign=top;spacingLeft=4;spacingRight=4;overflow=hidden;rotatable=0;points=[[0,0.5],[1,0.5]];portConstraint=eastwest;" vertex="1" parent="C3e3Mf71zj82oEzfNdOF-1">
          <mxGeometry y="320" width="700" height="26" as="geometry" />
        </mxCell>
        <mxCell id="C3e3Mf71zj82oEzfNdOF-15" value="+ parent_link(): Link*" style="text;strokeColor=none;fillColor=none;align=left;verticalAlign=top;spacingLeft=4;spacingRight=4;overflow=hidden;rotatable=0;points=[[0,0.5],[1,0.5]];portConstraint=eastwest;" vertex="1" parent="C3e3Mf71zj82oEzfNdOF-1">
          <mxGeometry y="346" width="700" height="26" as="geometry" />
        </mxCell>
        <mxCell id="C3e3Mf71zj82oEzfNdOF-16" value="+ set_number(number: unsigned int): void" style="text;strokeColor=none;fillColor=none;align=left;verticalAlign=top;spacingLeft=4;spacingRight=4;overflow=hidden;rotatable=0;points=[[0,0.5],[1,0.5]];portConstraint=eastwest;" vertex="1" parent="C3e3Mf71zj82oEzfNdOF-1">
          <mxGeometry y="372" width="700" height="26" as="geometry" />
        </mxCell>
        <mxCell id="C3e3Mf71zj82oEzfNdOF-17" value="+ set_parent_link(parent: Link*): bool" style="text;strokeColor=none;fillColor=none;align=left;verticalAlign=top;spacingLeft=4;spacingRight=4;overflow=hidden;rotatable=0;points=[[0,0.5],[1,0.5]];portConstraint=eastwest;" vertex="1" parent="C3e3Mf71zj82oEzfNdOF-1">
          <mxGeometry y="398" width="700" height="26" as="geometry" />
        </mxCell>
        <mxCell id="C3e3Mf71zj82oEzfNdOF-18" value="+ update_state(jointPosition: double, jointVelocity: double): bool" style="text;strokeColor=none;fillColor=none;align=left;verticalAlign=top;spacingLeft=4;spacingRight=4;overflow=hidden;rotatable=0;points=[[0,0.5],[1,0.5]];portConstraint=eastwest;" vertex="1" parent="C3e3Mf71zj82oEzfNdOF-1">
          <mxGeometry y="424" width="700" height="26" as="geometry" />
        </mxCell>
        <mxCell id="C3e3Mf71zj82oEzfNdOF-19" value="+ update_state(previousPose: Pose, previousTwist: Eigen::Vector&lt;double, 6&gt;, jointPosition: double, jointVelocity: double): bool" style="text;strokeColor=none;fillColor=none;align=left;verticalAlign=top;spacingLeft=4;spacingRight=4;overflow=hidden;rotatable=0;points=[[0,0.5],[1,0.5]];portConstraint=eastwest;" vertex="1" parent="C3e3Mf71zj82oEzfNdOF-1">
          <mxGeometry y="450" width="700" height="26" as="geometry" />
        </mxCell>
        <mxCell id="je0LyeJBRkTGW1vDx74X-1" style="edgeStyle=orthogonalEdgeStyle;rounded=0;orthogonalLoop=1;jettySize=auto;html=1;exitX=0.5;exitY=1;exitDx=0;exitDy=0;entryX=0.25;entryY=0;entryDx=0;entryDy=0;" edge="1" parent="1" source="qlBi3eVm-7YT3h2Sjc5z-1" target="C3e3Mf71zj82oEzfNdOF-1">
          <mxGeometry relative="1" as="geometry" />
        </mxCell>
        <mxCell id="qlBi3eVm-7YT3h2Sjc5z-1" value="RobotLibrary::Model::Joint" style="swimlane;fontStyle=1;childLayout=stackLayout;horizontal=1;startSize=26;horizontalStack=0;resizeParent=1;resizeParentMax=0;resizeLast=0;collapsible=1;marginBottom=0;" vertex="1" collapsed="1" parent="1">
          <mxGeometry x="-1555" y="-1140" width="200" height="30" as="geometry">
            <mxRectangle x="-1630" y="-1030" width="1170" height="684" as="alternateBounds" />
          </mxGeometry>
        </mxCell>
        <mxCell id="qlBi3eVm-7YT3h2Sjc5z-2" value="- _axis: Eigen::Vector&lt;double, 3&gt;" style="text;strokeColor=none;fillColor=none;align=left;verticalAlign=top;spacingLeft=4;spacingRight=4;overflow=hidden;rotatable=0;points=[[0,0.5],[1,0.5]];portConstraint=eastwest;" vertex="1" parent="qlBi3eVm-7YT3h2Sjc5z-1">
          <mxGeometry y="26" width="1170" height="26" as="geometry" />
        </mxCell>
        <mxCell id="qlBi3eVm-7YT3h2Sjc5z-3" value="- _damping: double" style="text;strokeColor=none;fillColor=none;align=left;verticalAlign=top;spacingLeft=4;spacingRight=4;overflow=hidden;rotatable=0;points=[[0,0.5],[1,0.5]];portConstraint=eastwest;" vertex="1" parent="qlBi3eVm-7YT3h2Sjc5z-1">
          <mxGeometry y="52" width="1170" height="26" as="geometry" />
        </mxCell>
        <mxCell id="qlBi3eVm-7YT3h2Sjc5z-4" value="- _effortLimit: double" style="text;strokeColor=none;fillColor=none;align=left;verticalAlign=top;spacingLeft=4;spacingRight=4;overflow=hidden;rotatable=0;points=[[0,0.5],[1,0.5]];portConstraint=eastwest;" vertex="1" parent="qlBi3eVm-7YT3h2Sjc5z-1">
          <mxGeometry y="78" width="1170" height="26" as="geometry" />
        </mxCell>
        <mxCell id="qlBi3eVm-7YT3h2Sjc5z-5" value="- _friction: double" style="text;strokeColor=none;fillColor=none;align=left;verticalAlign=top;spacingLeft=4;spacingRight=4;overflow=hidden;rotatable=0;points=[[0,0.5],[1,0.5]];portConstraint=eastwest;" vertex="1" parent="qlBi3eVm-7YT3h2Sjc5z-1">
          <mxGeometry y="104" width="1170" height="26" as="geometry" />
        </mxCell>
        <mxCell id="qlBi3eVm-7YT3h2Sjc5z-6" value="- _isFixed: bool" style="text;strokeColor=none;fillColor=none;align=left;verticalAlign=top;spacingLeft=4;spacingRight=4;overflow=hidden;rotatable=0;points=[[0,0.5],[1,0.5]];portConstraint=eastwest;" vertex="1" parent="qlBi3eVm-7YT3h2Sjc5z-1">
          <mxGeometry y="130" width="1170" height="26" as="geometry" />
        </mxCell>
        <mxCell id="qlBi3eVm-7YT3h2Sjc5z-7" value="- _isRevolute: bool" style="text;strokeColor=none;fillColor=none;align=left;verticalAlign=top;spacingLeft=4;spacingRight=4;overflow=hidden;rotatable=0;points=[[0,0.5],[1,0.5]];portConstraint=eastwest;" vertex="1" parent="qlBi3eVm-7YT3h2Sjc5z-1">
          <mxGeometry y="156" width="1170" height="26" as="geometry" />
        </mxCell>
        <mxCell id="qlBi3eVm-7YT3h2Sjc5z-8" value="- _name: string" style="text;strokeColor=none;fillColor=none;align=left;verticalAlign=top;spacingLeft=4;spacingRight=4;overflow=hidden;rotatable=0;points=[[0,0.5],[1,0.5]];portConstraint=eastwest;" vertex="1" parent="qlBi3eVm-7YT3h2Sjc5z-1">
          <mxGeometry y="182" width="1170" height="26" as="geometry" />
        </mxCell>
        <mxCell id="qlBi3eVm-7YT3h2Sjc5z-9" value="- _origin: RobotLibrary::Model::Pose" style="text;strokeColor=none;fillColor=none;align=left;verticalAlign=top;spacingLeft=4;spacingRight=4;overflow=hidden;rotatable=0;points=[[0,0.5],[1,0.5]];portConstraint=eastwest;" vertex="1" parent="qlBi3eVm-7YT3h2Sjc5z-1">
          <mxGeometry y="208" width="1170" height="26" as="geometry" />
        </mxCell>
        <mxCell id="qlBi3eVm-7YT3h2Sjc5z-10" value="- _positionLimit: RobotLibrary::Model::Limits" style="text;strokeColor=none;fillColor=none;align=left;verticalAlign=top;spacingLeft=4;spacingRight=4;overflow=hidden;rotatable=0;points=[[0,0.5],[1,0.5]];portConstraint=eastwest;" vertex="1" parent="qlBi3eVm-7YT3h2Sjc5z-1">
          <mxGeometry y="234" width="1170" height="26" as="geometry" />
        </mxCell>
        <mxCell id="qlBi3eVm-7YT3h2Sjc5z-11" value="- _speedLimit: double" style="text;strokeColor=none;fillColor=none;align=left;verticalAlign=top;spacingLeft=4;spacingRight=4;overflow=hidden;rotatable=0;points=[[0,0.5],[1,0.5]];portConstraint=eastwest;" vertex="1" parent="qlBi3eVm-7YT3h2Sjc5z-1">
          <mxGeometry y="260" width="1170" height="26" as="geometry" />
        </mxCell>
        <mxCell id="qlBi3eVm-7YT3h2Sjc5z-12" value="- _type: string" style="text;strokeColor=none;fillColor=none;align=left;verticalAlign=top;spacingLeft=4;spacingRight=4;overflow=hidden;rotatable=0;points=[[0,0.5],[1,0.5]];portConstraint=eastwest;" vertex="1" parent="qlBi3eVm-7YT3h2Sjc5z-1">
          <mxGeometry y="286" width="1170" height="26" as="geometry" />
        </mxCell>
        <mxCell id="qlBi3eVm-7YT3h2Sjc5z-13" value="" style="line;strokeWidth=1;fillColor=none;align=left;verticalAlign=middle;spacingTop=-1;spacingLeft=3;spacingRight=3;rotatable=0;labelPosition=right;points=[];portConstraint=eastwest;" vertex="1" parent="qlBi3eVm-7YT3h2Sjc5z-1">
          <mxGeometry y="312" width="1170" height="8" as="geometry" />
        </mxCell>
        <mxCell id="qlBi3eVm-7YT3h2Sjc5z-14" value="+ Joint(name: string, type: string, axis: Eigen::Vector&lt;double, 3&gt;, positionLimit: RobotLibrary::Model::Limits)" style="text;strokeColor=none;fillColor=none;align=left;verticalAlign=top;spacingLeft=4;spacingRight=4;overflow=hidden;rotatable=0;points=[[0,0.5],[1,0.5]];portConstraint=eastwest;" vertex="1" parent="qlBi3eVm-7YT3h2Sjc5z-1">
          <mxGeometry y="320" width="1170" height="26" as="geometry" />
        </mxCell>
        <mxCell id="qlBi3eVm-7YT3h2Sjc5z-15" value="+ Joint(name: string, type: string, axis: Eigen::Vector&lt;double, 3&gt;, origin: RobotLibrary::Model::Pose, positionLimit: RobotLibrary::Model::Limits, speedLimit: double, effortLimit: double, damping: double, friction: double)" style="text;strokeColor=none;fillColor=none;align=left;verticalAlign=top;spacingLeft=4;spacingRight=4;overflow=hidden;rotatable=0;points=[[0,0.5],[1,0.5]];portConstraint=eastwest;" vertex="1" parent="qlBi3eVm-7YT3h2Sjc5z-1">
          <mxGeometry y="346" width="1170" height="26" as="geometry" />
        </mxCell>
        <mxCell id="qlBi3eVm-7YT3h2Sjc5z-16" value="+ damping(): double" style="text;strokeColor=none;fillColor=none;align=left;verticalAlign=top;spacingLeft=4;spacingRight=4;overflow=hidden;rotatable=0;points=[[0,0.5],[1,0.5]];portConstraint=eastwest;" vertex="1" parent="qlBi3eVm-7YT3h2Sjc5z-1">
          <mxGeometry y="372" width="1170" height="26" as="geometry" />
        </mxCell>
        <mxCell id="qlBi3eVm-7YT3h2Sjc5z-17" value="+ effort_limit(): double" style="text;strokeColor=none;fillColor=none;align=left;verticalAlign=top;spacingLeft=4;spacingRight=4;overflow=hidden;rotatable=0;points=[[0,0.5],[1,0.5]];portConstraint=eastwest;" vertex="1" parent="qlBi3eVm-7YT3h2Sjc5z-1">
          <mxGeometry y="398" width="1170" height="26" as="geometry" />
        </mxCell>
        <mxCell id="qlBi3eVm-7YT3h2Sjc5z-18" value="+ extend_origin(other: RobotLibrary::Model::Pose): void" style="text;strokeColor=none;fillColor=none;align=left;verticalAlign=top;spacingLeft=4;spacingRight=4;overflow=hidden;rotatable=0;points=[[0,0.5],[1,0.5]];portConstraint=eastwest;" vertex="1" parent="qlBi3eVm-7YT3h2Sjc5z-1">
          <mxGeometry y="424" width="1170" height="26" as="geometry" />
        </mxCell>
        <mxCell id="qlBi3eVm-7YT3h2Sjc5z-19" value="+ is_fixed(): bool" style="text;strokeColor=none;fillColor=none;align=left;verticalAlign=top;spacingLeft=4;spacingRight=4;overflow=hidden;rotatable=0;points=[[0,0.5],[1,0.5]];portConstraint=eastwest;" vertex="1" parent="qlBi3eVm-7YT3h2Sjc5z-1">
          <mxGeometry y="450" width="1170" height="26" as="geometry" />
        </mxCell>
        <mxCell id="qlBi3eVm-7YT3h2Sjc5z-20" value="+ is_prismatic(): bool" style="text;strokeColor=none;fillColor=none;align=left;verticalAlign=top;spacingLeft=4;spacingRight=4;overflow=hidden;rotatable=0;points=[[0,0.5],[1,0.5]];portConstraint=eastwest;" vertex="1" parent="qlBi3eVm-7YT3h2Sjc5z-1">
          <mxGeometry y="476" width="1170" height="26" as="geometry" />
        </mxCell>
        <mxCell id="qlBi3eVm-7YT3h2Sjc5z-21" value="+ is_revolute(): bool" style="text;strokeColor=none;fillColor=none;align=left;verticalAlign=top;spacingLeft=4;spacingRight=4;overflow=hidden;rotatable=0;points=[[0,0.5],[1,0.5]];portConstraint=eastwest;" vertex="1" parent="qlBi3eVm-7YT3h2Sjc5z-1">
          <mxGeometry y="502" width="1170" height="26" as="geometry" />
        </mxCell>
        <mxCell id="qlBi3eVm-7YT3h2Sjc5z-22" value="+ name(): string" style="text;strokeColor=none;fillColor=none;align=left;verticalAlign=top;spacingLeft=4;spacingRight=4;overflow=hidden;rotatable=0;points=[[0,0.5],[1,0.5]];portConstraint=eastwest;" vertex="1" parent="qlBi3eVm-7YT3h2Sjc5z-1">
          <mxGeometry y="528" width="1170" height="26" as="geometry" />
        </mxCell>
        <mxCell id="qlBi3eVm-7YT3h2Sjc5z-23" value="+ origin(): RobotLibrary::Model::Pose" style="text;strokeColor=none;fillColor=none;align=left;verticalAlign=top;spacingLeft=4;spacingRight=4;overflow=hidden;rotatable=0;points=[[0,0.5],[1,0.5]];portConstraint=eastwest;" vertex="1" parent="qlBi3eVm-7YT3h2Sjc5z-1">
          <mxGeometry y="554" width="1170" height="26" as="geometry" />
        </mxCell>
        <mxCell id="qlBi3eVm-7YT3h2Sjc5z-24" value="+ position_limits(): RobotLibrary::Model::Limits" style="text;strokeColor=none;fillColor=none;align=left;verticalAlign=top;spacingLeft=4;spacingRight=4;overflow=hidden;rotatable=0;points=[[0,0.5],[1,0.5]];portConstraint=eastwest;" vertex="1" parent="qlBi3eVm-7YT3h2Sjc5z-1">
          <mxGeometry y="580" width="1170" height="26" as="geometry" />
        </mxCell>
        <mxCell id="qlBi3eVm-7YT3h2Sjc5z-25" value="+ position_offset(position: double): RobotLibrary::Model::Pose" style="text;strokeColor=none;fillColor=none;align=left;verticalAlign=top;spacingLeft=4;spacingRight=4;overflow=hidden;rotatable=0;points=[[0,0.5],[1,0.5]];portConstraint=eastwest;" vertex="1" parent="qlBi3eVm-7YT3h2Sjc5z-1">
          <mxGeometry y="606" width="1170" height="26" as="geometry" />
        </mxCell>
        <mxCell id="qlBi3eVm-7YT3h2Sjc5z-26" value="+ speed_limit(): double" style="text;strokeColor=none;fillColor=none;align=left;verticalAlign=top;spacingLeft=4;spacingRight=4;overflow=hidden;rotatable=0;points=[[0,0.5],[1,0.5]];portConstraint=eastwest;" vertex="1" parent="qlBi3eVm-7YT3h2Sjc5z-1">
          <mxGeometry y="632" width="1170" height="26" as="geometry" />
        </mxCell>
        <mxCell id="qlBi3eVm-7YT3h2Sjc5z-27" value="+ type(): string" style="text;strokeColor=none;fillColor=none;align=left;verticalAlign=top;spacingLeft=4;spacingRight=4;overflow=hidden;rotatable=0;points=[[0,0.5],[1,0.5]];portConstraint=eastwest;" vertex="1" parent="qlBi3eVm-7YT3h2Sjc5z-1">
          <mxGeometry y="658" width="1170" height="26" as="geometry" />
        </mxCell>
        <mxCell id="wuI5xODBabGK-LduRidv-1" value="RobotLibrary::Model::RigidBody" style="swimlane;fontStyle=1;childLayout=stackLayout;horizontal=1;startSize=26;horizontalStack=0;resizeParent=1;resizeParentMax=0;resizeLast=0;collapsible=1;marginBottom=0;" vertex="1" collapsed="1" parent="1">
          <mxGeometry x="-1270" y="-1140" width="240" height="30" as="geometry">
            <mxRectangle x="-1600" y="-1070" width="550" height="554" as="alternateBounds" />
          </mxGeometry>
        </mxCell>
        <mxCell id="wuI5xODBabGK-LduRidv-2" value="- _centerOfMass: Eigen::Vector3d" style="text;strokeColor=none;fillColor=none;align=left;verticalAlign=top;spacingLeft=4;spacingRight=4;overflow=hidden;rotatable=0;points=[[0,0.5],[1,0.5]];portConstraint=eastwest;" vertex="1" parent="wuI5xODBabGK-LduRidv-1">
          <mxGeometry y="26" width="550" height="26" as="geometry" />
        </mxCell>
        <mxCell id="wuI5xODBabGK-LduRidv-3" value="- _inertia: Eigen::Matrix3d" style="text;strokeColor=none;fillColor=none;align=left;verticalAlign=top;spacingLeft=4;spacingRight=4;overflow=hidden;rotatable=0;points=[[0,0.5],[1,0.5]];portConstraint=eastwest;" vertex="1" parent="wuI5xODBabGK-LduRidv-1">
          <mxGeometry y="52" width="550" height="26" as="geometry" />
        </mxCell>
        <mxCell id="wuI5xODBabGK-LduRidv-4" value="- _inertiaDerivative: Eigen::Matrix3d" style="text;strokeColor=none;fillColor=none;align=left;verticalAlign=top;spacingLeft=4;spacingRight=4;overflow=hidden;rotatable=0;points=[[0,0.5],[1,0.5]];portConstraint=eastwest;" vertex="1" parent="wuI5xODBabGK-LduRidv-1">
          <mxGeometry y="78" width="550" height="26" as="geometry" />
        </mxCell>
        <mxCell id="wuI5xODBabGK-LduRidv-5" value="- _localCenterOfMass: Eigen::Vector3d" style="text;strokeColor=none;fillColor=none;align=left;verticalAlign=top;spacingLeft=4;spacingRight=4;overflow=hidden;rotatable=0;points=[[0,0.5],[1,0.5]];portConstraint=eastwest;" vertex="1" parent="wuI5xODBabGK-LduRidv-1">
          <mxGeometry y="104" width="550" height="26" as="geometry" />
        </mxCell>
        <mxCell id="wuI5xODBabGK-LduRidv-6" value="- _localInertia: Eigen::Matrix3d" style="text;strokeColor=none;fillColor=none;align=left;verticalAlign=top;spacingLeft=4;spacingRight=4;overflow=hidden;rotatable=0;points=[[0,0.5],[1,0.5]];portConstraint=eastwest;" vertex="1" parent="wuI5xODBabGK-LduRidv-1">
          <mxGeometry y="130" width="550" height="26" as="geometry" />
        </mxCell>
        <mxCell id="wuI5xODBabGK-LduRidv-7" value="- _mass: double" style="text;strokeColor=none;fillColor=none;align=left;verticalAlign=top;spacingLeft=4;spacingRight=4;overflow=hidden;rotatable=0;points=[[0,0.5],[1,0.5]];portConstraint=eastwest;" vertex="1" parent="wuI5xODBabGK-LduRidv-1">
          <mxGeometry y="156" width="550" height="26" as="geometry" />
        </mxCell>
        <mxCell id="wuI5xODBabGK-LduRidv-8" value="- _name: string" style="text;strokeColor=none;fillColor=none;align=left;verticalAlign=top;spacingLeft=4;spacingRight=4;overflow=hidden;rotatable=0;points=[[0,0.5],[1,0.5]];portConstraint=eastwest;" vertex="1" parent="wuI5xODBabGK-LduRidv-1">
          <mxGeometry y="182" width="550" height="26" as="geometry" />
        </mxCell>
        <mxCell id="wuI5xODBabGK-LduRidv-9" value="- _pose: RobotLibrary::Model::Pose" style="text;strokeColor=none;fillColor=none;align=left;verticalAlign=top;spacingLeft=4;spacingRight=4;overflow=hidden;rotatable=0;points=[[0,0.5],[1,0.5]];portConstraint=eastwest;" vertex="1" parent="wuI5xODBabGK-LduRidv-1">
          <mxGeometry y="208" width="550" height="26" as="geometry" />
        </mxCell>
        <mxCell id="wuI5xODBabGK-LduRidv-10" value="- _twist: Eigen::Vector&lt;double, 6&gt;" style="text;strokeColor=none;fillColor=none;align=left;verticalAlign=top;spacingLeft=4;spacingRight=4;overflow=hidden;rotatable=0;points=[[0,0.5],[1,0.5]];portConstraint=eastwest;" vertex="1" parent="wuI5xODBabGK-LduRidv-1">
          <mxGeometry y="234" width="550" height="26" as="geometry" />
        </mxCell>
        <mxCell id="wuI5xODBabGK-LduRidv-11" value="" style="line;strokeWidth=1;fillColor=none;align=left;verticalAlign=middle;spacingTop=-1;spacingLeft=3;spacingRight=3;rotatable=0;labelPosition=right;points=[];portConstraint=eastwest;" vertex="1" parent="wuI5xODBabGK-LduRidv-1">
          <mxGeometry y="260" width="550" height="8" as="geometry" />
        </mxCell>
        <mxCell id="wuI5xODBabGK-LduRidv-12" value="+ RigidBody()" style="text;strokeColor=none;fillColor=none;align=left;verticalAlign=top;spacingLeft=4;spacingRight=4;overflow=hidden;rotatable=0;points=[[0,0.5],[1,0.5]];portConstraint=eastwest;" vertex="1" parent="wuI5xODBabGK-LduRidv-1">
          <mxGeometry y="268" width="550" height="26" as="geometry" />
        </mxCell>
        <mxCell id="wuI5xODBabGK-LduRidv-13" value="+ RigidBody(name: string, mass: double, inertia: Eigen::Matrix3d, centerOfMass: Eigen::Vector3d)" style="text;strokeColor=none;fillColor=none;align=left;verticalAlign=top;spacingLeft=4;spacingRight=4;overflow=hidden;rotatable=0;points=[[0,0.5],[1,0.5]];portConstraint=eastwest;" vertex="1" parent="wuI5xODBabGK-LduRidv-1">
          <mxGeometry y="294" width="550" height="26" as="geometry" />
        </mxCell>
        <mxCell id="wuI5xODBabGK-LduRidv-14" value="+ center_of_mass(): Eigen::Vector3d" style="text;strokeColor=none;fillColor=none;align=left;verticalAlign=top;spacingLeft=4;spacingRight=4;overflow=hidden;rotatable=0;points=[[0,0.5],[1,0.5]];portConstraint=eastwest;" vertex="1" parent="wuI5xODBabGK-LduRidv-1">
          <mxGeometry y="320" width="550" height="26" as="geometry" />
        </mxCell>
        <mxCell id="wuI5xODBabGK-LduRidv-15" value="+ combine_inertia(other: RigidBody, pose: RobotLibrary::Model::Pose): void" style="text;strokeColor=none;fillColor=none;align=left;verticalAlign=top;spacingLeft=4;spacingRight=4;overflow=hidden;rotatable=0;points=[[0,0.5],[1,0.5]];portConstraint=eastwest;" vertex="1" parent="wuI5xODBabGK-LduRidv-1">
          <mxGeometry y="346" width="550" height="26" as="geometry" />
        </mxCell>
        <mxCell id="wuI5xODBabGK-LduRidv-16" value="+ inertia(): Eigen::Matrix3d" style="text;strokeColor=none;fillColor=none;align=left;verticalAlign=top;spacingLeft=4;spacingRight=4;overflow=hidden;rotatable=0;points=[[0,0.5],[1,0.5]];portConstraint=eastwest;" vertex="1" parent="wuI5xODBabGK-LduRidv-1">
          <mxGeometry y="372" width="550" height="26" as="geometry" />
        </mxCell>
        <mxCell id="wuI5xODBabGK-LduRidv-17" value="+ inertia_derivative(): Eigen::Matrix3d" style="text;strokeColor=none;fillColor=none;align=left;verticalAlign=top;spacingLeft=4;spacingRight=4;overflow=hidden;rotatable=0;points=[[0,0.5],[1,0.5]];portConstraint=eastwest;" vertex="1" parent="wuI5xODBabGK-LduRidv-1">
          <mxGeometry y="398" width="550" height="26" as="geometry" />
        </mxCell>
        <mxCell id="wuI5xODBabGK-LduRidv-18" value="+ mass(): double" style="text;strokeColor=none;fillColor=none;align=left;verticalAlign=top;spacingLeft=4;spacingRight=4;overflow=hidden;rotatable=0;points=[[0,0.5],[1,0.5]];portConstraint=eastwest;" vertex="1" parent="wuI5xODBabGK-LduRidv-1">
          <mxGeometry y="424" width="550" height="26" as="geometry" />
        </mxCell>
        <mxCell id="wuI5xODBabGK-LduRidv-19" value="+ name(): string" style="text;strokeColor=none;fillColor=none;align=left;verticalAlign=top;spacingLeft=4;spacingRight=4;overflow=hidden;rotatable=0;points=[[0,0.5],[1,0.5]];portConstraint=eastwest;" vertex="1" parent="wuI5xODBabGK-LduRidv-1">
          <mxGeometry y="450" width="550" height="26" as="geometry" />
        </mxCell>
        <mxCell id="wuI5xODBabGK-LduRidv-20" value="+ pose(): RobotLibrary::Model::Pose" style="text;strokeColor=none;fillColor=none;align=left;verticalAlign=top;spacingLeft=4;spacingRight=4;overflow=hidden;rotatable=0;points=[[0,0.5],[1,0.5]];portConstraint=eastwest;" vertex="1" parent="wuI5xODBabGK-LduRidv-1">
          <mxGeometry y="476" width="550" height="26" as="geometry" />
        </mxCell>
        <mxCell id="wuI5xODBabGK-LduRidv-21" value="+ twist(): Eigen::Vector&lt;double, 6&gt;" style="text;strokeColor=none;fillColor=none;align=left;verticalAlign=top;spacingLeft=4;spacingRight=4;overflow=hidden;rotatable=0;points=[[0,0.5],[1,0.5]];portConstraint=eastwest;" vertex="1" parent="wuI5xODBabGK-LduRidv-1">
          <mxGeometry y="502" width="550" height="26" as="geometry" />
        </mxCell>
        <mxCell id="wuI5xODBabGK-LduRidv-22" value="+ update_state(pose: RobotLibrary::Model::Pose, twist: Eigen::Vector&lt;double, 6&gt;): void" style="text;strokeColor=none;fillColor=none;align=left;verticalAlign=top;spacingLeft=4;spacingRight=4;overflow=hidden;rotatable=0;points=[[0,0.5],[1,0.5]];portConstraint=eastwest;" vertex="1" parent="wuI5xODBabGK-LduRidv-1">
          <mxGeometry y="528" width="550" height="26" as="geometry" />
        </mxCell>
        <mxCell id="je0LyeJBRkTGW1vDx74X-2" style="edgeStyle=orthogonalEdgeStyle;rounded=0;orthogonalLoop=1;jettySize=auto;html=1;exitX=0.5;exitY=1;exitDx=0;exitDy=0;entryX=0.682;entryY=-0.007;entryDx=0;entryDy=0;entryPerimeter=0;" edge="1" parent="1" source="wuI5xODBabGK-LduRidv-1" target="C3e3Mf71zj82oEzfNdOF-1">
          <mxGeometry relative="1" as="geometry" />
        </mxCell>
      </root>
    </mxGraphModel>
  </diagram>
  <diagram id="xBfOgvuOezSInQPL6_8_" name="KinematicTree">
    <mxGraphModel dx="3422" dy="2295" grid="1" gridSize="10" guides="1" tooltips="1" connect="1" arrows="1" fold="1" page="1" pageScale="1" pageWidth="827" pageHeight="1169" math="0" shadow="0">
      <root>
        <mxCell id="0" />
        <mxCell id="1" parent="0" />
        <mxCell id="xfODIB_jVRz_zEy3CT39-1" value="RobotLibrary::Model::KinematicTree" style="swimlane;fontStyle=1;childLayout=stackLayout;horizontal=1;startSize=26;horizontalStack=0;resizeParent=1;resizeParentMax=0;resizeLast=0;collapsible=1;marginBottom=0;" vertex="1" parent="1">
          <mxGeometry x="-1630" y="-1080" width="880" height="1100" as="geometry" />
        </mxCell>
        <mxCell id="xfODIB_jVRz_zEy3CT39-14" value="- _baseLinks: std::vector&lt;RobotLibrary::Model::Link*&gt;" style="text;strokeColor=none;fillColor=none;align=left;verticalAlign=top;spacingLeft=4;spacingRight=4;overflow=hidden;rotatable=0;points=[[0,0.5],[1,0.5]];portConstraint=eastwest;" vertex="1" parent="xfODIB_jVRz_zEy3CT39-1">
          <mxGeometry y="26" width="880" height="26" as="geometry" />
        </mxCell>
        <mxCell id="xfODIB_jVRz_zEy3CT39-16" value="- _baseName: string" style="text;strokeColor=none;fillColor=none;align=left;verticalAlign=top;spacingLeft=4;spacingRight=4;overflow=hidden;rotatable=0;points=[[0,0.5],[1,0.5]];portConstraint=eastwest;" vertex="1" parent="xfODIB_jVRz_zEy3CT39-1">
          <mxGeometry y="52" width="880" height="26" as="geometry" />
        </mxCell>
        <mxCell id="xfODIB_jVRz_zEy3CT39-2" value="- _jointBaseCoriolisMatrix: Eigen::Matrix&lt;double, Eigen::Dynamic, 6&gt;" style="text;strokeColor=none;fillColor=none;align=left;verticalAlign=top;spacingLeft=4;spacingRight=4;overflow=hidden;rotatable=0;points=[[0,0.5],[1,0.5]];portConstraint=eastwest;" vertex="1" parent="xfODIB_jVRz_zEy3CT39-1">
          <mxGeometry y="78" width="880" height="26" as="geometry" />
        </mxCell>
        <mxCell id="xfODIB_jVRz_zEy3CT39-3" value="- _jointBaseInertiaMatrix: Eigen::Matrix&lt;double, Eigen::Dynamic, 6&gt;" style="text;strokeColor=none;fillColor=none;align=left;verticalAlign=top;spacingLeft=4;spacingRight=4;overflow=hidden;rotatable=0;points=[[0,0.5],[1,0.5]];portConstraint=eastwest;" vertex="1" parent="xfODIB_jVRz_zEy3CT39-1">
          <mxGeometry y="104" width="880" height="26" as="geometry" />
        </mxCell>
        <mxCell id="xfODIB_jVRz_zEy3CT39-4" value="- _jointCoriolisMatrix: Eigen::MatrixXd" style="text;strokeColor=none;fillColor=none;align=left;verticalAlign=top;spacingLeft=4;spacingRight=4;overflow=hidden;rotatable=0;points=[[0,0.5],[1,0.5]];portConstraint=eastwest;" vertex="1" parent="xfODIB_jVRz_zEy3CT39-1">
          <mxGeometry y="130" width="880" height="26" as="geometry" />
        </mxCell>
        <mxCell id="xfODIB_jVRz_zEy3CT39-5" value="- _jointDampingVector: Eigen::VectorXd" style="text;strokeColor=none;fillColor=none;align=left;verticalAlign=top;spacingLeft=4;spacingRight=4;overflow=hidden;rotatable=0;points=[[0,0.5],[1,0.5]];portConstraint=eastwest;" vertex="1" parent="xfODIB_jVRz_zEy3CT39-1">
          <mxGeometry y="156" width="880" height="26" as="geometry" />
        </mxCell>
        <mxCell id="xfODIB_jVRz_zEy3CT39-10" value="- _jointGravityVector: Eigen::VectorXd" style="text;strokeColor=none;fillColor=none;align=left;verticalAlign=top;spacingLeft=4;spacingRight=4;overflow=hidden;rotatable=0;points=[[0,0.5],[1,0.5]];portConstraint=eastwest;" vertex="1" parent="xfODIB_jVRz_zEy3CT39-1">
          <mxGeometry y="182" width="880" height="26" as="geometry" />
        </mxCell>
        <mxCell id="xfODIB_jVRz_zEy3CT39-6" value="- _jointInertiaMatrix: Eigen::MatrixXd" style="text;strokeColor=none;fillColor=none;align=left;verticalAlign=top;spacingLeft=4;spacingRight=4;overflow=hidden;rotatable=0;points=[[0,0.5],[1,0.5]];portConstraint=eastwest;" vertex="1" parent="xfODIB_jVRz_zEy3CT39-1">
          <mxGeometry y="208" width="880" height="26" as="geometry" />
        </mxCell>
        <mxCell id="xfODIB_jVRz_zEy3CT39-8" value="- _jointPosition: Eigen::VectorXd" style="text;strokeColor=none;fillColor=none;align=left;verticalAlign=top;spacingLeft=4;spacingRight=4;overflow=hidden;rotatable=0;points=[[0,0.5],[1,0.5]];portConstraint=eastwest;" vertex="1" parent="xfODIB_jVRz_zEy3CT39-1">
          <mxGeometry y="234" width="880" height="26" as="geometry" />
        </mxCell>
        <mxCell id="xfODIB_jVRz_zEy3CT39-9" value="- _jointVelocity: Eigen::VectorXd" style="text;strokeColor=none;fillColor=none;align=left;verticalAlign=top;spacingLeft=4;spacingRight=4;overflow=hidden;rotatable=0;points=[[0,0.5],[1,0.5]];portConstraint=eastwest;" vertex="1" parent="xfODIB_jVRz_zEy3CT39-1">
          <mxGeometry y="260" width="880" height="26" as="geometry" />
        </mxCell>
        <mxCell id="xfODIB_jVRz_zEy3CT39-11" value="- _frameList: std::map&lt;std::string, RobotLibrary::Model::ReferenceFrame&gt;" style="text;strokeColor=none;fillColor=none;align=left;verticalAlign=top;spacingLeft=4;spacingRight=4;overflow=hidden;rotatable=0;points=[[0,0.5],[1,0.5]];portConstraint=eastwest;" vertex="1" parent="xfODIB_jVRz_zEy3CT39-1">
          <mxGeometry y="286" width="880" height="26" as="geometry" />
        </mxCell>
        <mxCell id="xfODIB_jVRz_zEy3CT39-12" value="- _fullLinkList: std::vector&lt;RobotLibrary::Model::Link&gt;" style="text;strokeColor=none;fillColor=none;align=left;verticalAlign=top;spacingLeft=4;spacingRight=4;overflow=hidden;rotatable=0;points=[[0,0.5],[1,0.5]];portConstraint=eastwest;" vertex="1" parent="xfODIB_jVRz_zEy3CT39-1">
          <mxGeometry y="312" width="880" height="26" as="geometry" />
        </mxCell>
        <mxCell id="xfODIB_jVRz_zEy3CT39-7" value="- _gravityVector: Eigen::Vector3d" style="text;strokeColor=none;fillColor=none;align=left;verticalAlign=top;spacingLeft=4;spacingRight=4;overflow=hidden;rotatable=0;points=[[0,0.5],[1,0.5]];portConstraint=eastwest;" vertex="1" parent="xfODIB_jVRz_zEy3CT39-1">
          <mxGeometry y="338" width="880" height="26" as="geometry" />
        </mxCell>
        <mxCell id="xfODIB_jVRz_zEy3CT39-13" value="- _link: std::vector&lt;RobotLibrary::Model::Link*&gt;" style="text;strokeColor=none;fillColor=none;align=left;verticalAlign=top;spacingLeft=4;spacingRight=4;overflow=hidden;rotatable=0;points=[[0,0.5],[1,0.5]];portConstraint=eastwest;" vertex="1" parent="xfODIB_jVRz_zEy3CT39-1">
          <mxGeometry y="364" width="880" height="26" as="geometry" />
        </mxCell>
        <mxCell id="xfODIB_jVRz_zEy3CT39-15" value="- _name: string" style="text;strokeColor=none;fillColor=none;align=left;verticalAlign=top;spacingLeft=4;spacingRight=4;overflow=hidden;rotatable=0;points=[[0,0.5],[1,0.5]];portConstraint=eastwest;" vertex="1" parent="xfODIB_jVRz_zEy3CT39-1">
          <mxGeometry y="390" width="880" height="26" as="geometry" />
        </mxCell>
        <mxCell id="xfODIB_jVRz_zEy3CT39-17" value="- _numberOfJoints: unsigned int" style="text;strokeColor=none;fillColor=none;align=left;verticalAlign=top;spacingLeft=4;spacingRight=4;overflow=hidden;rotatable=0;points=[[0,0.5],[1,0.5]];portConstraint=eastwest;" vertex="1" parent="xfODIB_jVRz_zEy3CT39-1">
          <mxGeometry y="416" width="880" height="26" as="geometry" />
        </mxCell>
        <mxCell id="xfODIB_jVRz_zEy3CT39-18" value="" style="line;strokeWidth=1;fillColor=none;align=left;verticalAlign=middle;spacingTop=-1;spacingLeft=3;spacingRight=3;rotatable=0;labelPosition=right;points=[];portConstraint=eastwest;" vertex="1" parent="xfODIB_jVRz_zEy3CT39-1">
          <mxGeometry y="442" width="880" height="8" as="geometry" />
        </mxCell>
        <mxCell id="xfODIB_jVRz_zEy3CT39-19" value="+ KinematicTree(pathToURDF: string)" style="text;strokeColor=none;fillColor=none;align=left;verticalAlign=top;spacingLeft=4;spacingRight=4;overflow=hidden;rotatable=0;points=[[0,0.5],[1,0.5]];portConstraint=eastwest;" vertex="1" parent="xfODIB_jVRz_zEy3CT39-1">
          <mxGeometry y="450" width="880" height="26" as="geometry" />
        </mxCell>
        <mxCell id="xfODIB_jVRz_zEy3CT39-43" value="+ base: RigidBody" style="text;strokeColor=none;fillColor=none;align=left;verticalAlign=top;spacingLeft=4;spacingRight=4;overflow=hidden;rotatable=0;points=[[0,0.5],[1,0.5]];portConstraint=eastwest;" vertex="1" parent="xfODIB_jVRz_zEy3CT39-1">
          <mxGeometry y="476" width="880" height="26" as="geometry" />
        </mxCell>
        <mxCell id="xfODIB_jVRz_zEy3CT39-37" value="+ base_name(): string" style="text;strokeColor=none;fillColor=none;align=left;verticalAlign=top;spacingLeft=4;spacingRight=4;overflow=hidden;rotatable=0;points=[[0,0.5],[1,0.5]];portConstraint=eastwest;" vertex="1" parent="xfODIB_jVRz_zEy3CT39-1">
          <mxGeometry y="502" width="880" height="26" as="geometry" />
        </mxCell>
        <mxCell id="xfODIB_jVRz_zEy3CT39-26" value="+ base_joint_coriolis_matrix(): Eigen::Matrix&lt;double, 6, Eigen::Dynamic&gt;" style="text;strokeColor=none;fillColor=none;align=left;verticalAlign=top;spacingLeft=4;spacingRight=4;overflow=hidden;rotatable=0;points=[[0,0.5],[1,0.5]];portConstraint=eastwest;" vertex="1" parent="xfODIB_jVRz_zEy3CT39-1">
          <mxGeometry y="528" width="880" height="26" as="geometry" />
        </mxCell>
        <mxCell id="xfODIB_jVRz_zEy3CT39-24" value="+ base_joint_inertia_matrix(): Eigen::Matrix&lt;double, 6, Eigen::Dynamic&gt;" style="text;strokeColor=none;fillColor=none;align=left;verticalAlign=top;spacingLeft=4;spacingRight=4;overflow=hidden;rotatable=0;points=[[0,0.5],[1,0.5]];portConstraint=eastwest;" vertex="1" parent="xfODIB_jVRz_zEy3CT39-1">
          <mxGeometry y="554" width="880" height="26" as="geometry" />
        </mxCell>
        <mxCell id="xfODIB_jVRz_zEy3CT39-32" value="+ frame_pose(frameName: string): RobotLibrary::Model::Pose" style="text;strokeColor=none;fillColor=none;align=left;verticalAlign=top;spacingLeft=4;spacingRight=4;overflow=hidden;rotatable=0;points=[[0,0.5],[1,0.5]];portConstraint=eastwest;" vertex="1" parent="xfODIB_jVRz_zEy3CT39-1">
          <mxGeometry y="580" width="880" height="26" as="geometry" />
        </mxCell>
        <mxCell id="xfODIB_jVRz_zEy3CT39-38" value="+ find_frame(frameName: string): RobotLibrary::Model::ReferenceFrame*" style="text;strokeColor=none;fillColor=none;align=left;verticalAlign=top;spacingLeft=4;spacingRight=4;overflow=hidden;rotatable=0;points=[[0,0.5],[1,0.5]];portConstraint=eastwest;" vertex="1" parent="xfODIB_jVRz_zEy3CT39-1">
          <mxGeometry y="606" width="880" height="26" as="geometry" />
        </mxCell>
        <mxCell id="xfODIB_jVRz_zEy3CT39-39" value="+ jacobian(frame: RobotLibrary::Model::ReferenceFrame*): Eigen::Matrix&lt;double, 6, Eigen::Dynamic&gt;" style="text;strokeColor=none;fillColor=none;align=left;verticalAlign=top;spacingLeft=4;spacingRight=4;overflow=hidden;rotatable=0;points=[[0,0.5],[1,0.5]];portConstraint=eastwest;" vertex="1" parent="xfODIB_jVRz_zEy3CT39-1">
          <mxGeometry y="632" width="880" height="26" as="geometry" />
        </mxCell>
        <mxCell id="xfODIB_jVRz_zEy3CT39-29" value="+ jacobian(frameName: string): Eigen::Matrix&lt;double, 6, Eigen::Dynamic&gt;" style="text;strokeColor=none;fillColor=none;align=left;verticalAlign=top;spacingLeft=4;spacingRight=4;overflow=hidden;rotatable=0;points=[[0,0.5],[1,0.5]];portConstraint=eastwest;" vertex="1" parent="xfODIB_jVRz_zEy3CT39-1">
          <mxGeometry y="658" width="880" height="26" as="geometry" />
        </mxCell>
        <mxCell id="xfODIB_jVRz_zEy3CT39-42" value="+ joint(jointNumber: unsigned int): Joint" style="text;strokeColor=none;fillColor=none;align=left;verticalAlign=top;spacingLeft=4;spacingRight=4;overflow=hidden;rotatable=0;points=[[0,0.5],[1,0.5]];portConstraint=eastwest;" vertex="1" parent="xfODIB_jVRz_zEy3CT39-1">
          <mxGeometry y="684" width="880" height="26" as="geometry" />
        </mxCell>
        <mxCell id="xfODIB_jVRz_zEy3CT39-25" value="+ joint_base_coriolis_matrix(): Eigen::Matrix&lt;double, Eigen::Dynamic, 6&gt;" style="text;strokeColor=none;fillColor=none;align=left;verticalAlign=top;spacingLeft=4;spacingRight=4;overflow=hidden;rotatable=0;points=[[0,0.5],[1,0.5]];portConstraint=eastwest;" vertex="1" parent="xfODIB_jVRz_zEy3CT39-1">
          <mxGeometry y="710" width="880" height="26" as="geometry" />
        </mxCell>
        <mxCell id="xfODIB_jVRz_zEy3CT39-23" value="+ joint_base_inertia_matrix(): Eigen::Matrix&lt;double, Eigen::Dynamic, 6&gt;" style="text;strokeColor=none;fillColor=none;align=left;verticalAlign=top;spacingLeft=4;spacingRight=4;overflow=hidden;rotatable=0;points=[[0,0.5],[1,0.5]];portConstraint=eastwest;" vertex="1" parent="xfODIB_jVRz_zEy3CT39-1">
          <mxGeometry y="736" width="880" height="26" as="geometry" />
        </mxCell>
        <mxCell id="xfODIB_jVRz_zEy3CT39-28" value="+ joint_coriolis_matrix(): Eigen::MatrixXd" style="text;strokeColor=none;fillColor=none;align=left;verticalAlign=top;spacingLeft=4;spacingRight=4;overflow=hidden;rotatable=0;points=[[0,0.5],[1,0.5]];portConstraint=eastwest;" vertex="1" parent="xfODIB_jVRz_zEy3CT39-1">
          <mxGeometry y="762" width="880" height="26" as="geometry" />
        </mxCell>
        <mxCell id="xfODIB_jVRz_zEy3CT39-33" value="+ joint_damping_vector(): Eigen::VectorXd" style="text;strokeColor=none;fillColor=none;align=left;verticalAlign=top;spacingLeft=4;spacingRight=4;overflow=hidden;rotatable=0;points=[[0,0.5],[1,0.5]];portConstraint=eastwest;" vertex="1" parent="xfODIB_jVRz_zEy3CT39-1">
          <mxGeometry y="788" width="880" height="26" as="geometry" />
        </mxCell>
        <mxCell id="xfODIB_jVRz_zEy3CT39-34" value="+ joint_gravity_vector(): Eigen::VectorXd" style="text;strokeColor=none;fillColor=none;align=left;verticalAlign=top;spacingLeft=4;spacingRight=4;overflow=hidden;rotatable=0;points=[[0,0.5],[1,0.5]];portConstraint=eastwest;" vertex="1" parent="xfODIB_jVRz_zEy3CT39-1">
          <mxGeometry y="814" width="880" height="26" as="geometry" />
        </mxCell>
        <mxCell id="xfODIB_jVRz_zEy3CT39-27" value="+ joint_inertia_matrix(): Eigen::MatrixXd" style="text;strokeColor=none;fillColor=none;align=left;verticalAlign=top;spacingLeft=4;spacingRight=4;overflow=hidden;rotatable=0;points=[[0,0.5],[1,0.5]];portConstraint=eastwest;" vertex="1" parent="xfODIB_jVRz_zEy3CT39-1">
          <mxGeometry y="840" width="880" height="26" as="geometry" />
        </mxCell>
        <mxCell id="xfODIB_jVRz_zEy3CT39-40" value="+ joint_positions(): Eigen::Vector&lt;double, Eigen::Dynamic&gt;" style="text;strokeColor=none;fillColor=none;align=left;verticalAlign=top;spacingLeft=4;spacingRight=4;overflow=hidden;rotatable=0;points=[[0,0.5],[1,0.5]];portConstraint=eastwest;" vertex="1" parent="xfODIB_jVRz_zEy3CT39-1">
          <mxGeometry y="866" width="880" height="26" as="geometry" />
        </mxCell>
        <mxCell id="xfODIB_jVRz_zEy3CT39-35" value="+ joint_velocities(): Eigen::VectorXd" style="text;strokeColor=none;fillColor=none;align=left;verticalAlign=top;spacingLeft=4;spacingRight=4;overflow=hidden;rotatable=0;points=[[0,0.5],[1,0.5]];portConstraint=eastwest;" vertex="1" parent="xfODIB_jVRz_zEy3CT39-1">
          <mxGeometry y="892" width="880" height="26" as="geometry" />
        </mxCell>
        <mxCell id="xfODIB_jVRz_zEy3CT39-41" value="+ link(linkNumber: unsigned int): RobotLibrary::Model::Link*" style="text;strokeColor=none;fillColor=none;align=left;verticalAlign=top;spacingLeft=4;spacingRight=4;overflow=hidden;rotatable=0;points=[[0,0.5],[1,0.5]];portConstraint=eastwest;" vertex="1" parent="xfODIB_jVRz_zEy3CT39-1">
          <mxGeometry y="918" width="880" height="26" as="geometry" />
        </mxCell>
        <mxCell id="xfODIB_jVRz_zEy3CT39-36" value="+ name(): string" style="text;strokeColor=none;fillColor=none;align=left;verticalAlign=top;spacingLeft=4;spacingRight=4;overflow=hidden;rotatable=0;points=[[0,0.5],[1,0.5]];portConstraint=eastwest;" vertex="1" parent="xfODIB_jVRz_zEy3CT39-1">
          <mxGeometry y="944" width="880" height="26" as="geometry" />
        </mxCell>
        <mxCell id="xfODIB_jVRz_zEy3CT39-22" value="+ number_of_joints(): unsigned int" style="text;strokeColor=none;fillColor=none;align=left;verticalAlign=top;spacingLeft=4;spacingRight=4;overflow=hidden;rotatable=0;points=[[0,0.5],[1,0.5]];portConstraint=eastwest;" vertex="1" parent="xfODIB_jVRz_zEy3CT39-1">
          <mxGeometry y="970" width="880" height="26" as="geometry" />
        </mxCell>
        <mxCell id="xfODIB_jVRz_zEy3CT39-31" value="+ partial_derivative(jacobianMatrix: Eigen::Matrix&lt;double, 6, Eigen::Dynamic&gt;, jointNumber: unsigned int): Eigen::Matrix&lt;double, 6, Eigen::Dynamic&gt;" style="text;strokeColor=none;fillColor=none;align=left;verticalAlign=top;spacingLeft=4;spacingRight=4;overflow=hidden;rotatable=0;points=[[0,0.5],[1,0.5]];portConstraint=eastwest;" vertex="1" parent="xfODIB_jVRz_zEy3CT39-1">
          <mxGeometry y="996" width="880" height="26" as="geometry" />
        </mxCell>
        <mxCell id="xfODIB_jVRz_zEy3CT39-30" value="+ time_derivative(jacobianMatrix: Eigen::Matrix&lt;double, 6, Eigen::Dynamic&gt;): Eigen::Matrix&lt;double, 6, Eigen::Dynamic&gt;" style="text;strokeColor=none;fillColor=none;align=left;verticalAlign=top;spacingLeft=4;spacingRight=4;overflow=hidden;rotatable=0;points=[[0,0.5],[1,0.5]];portConstraint=eastwest;" vertex="1" parent="xfODIB_jVRz_zEy3CT39-1">
          <mxGeometry y="1022" width="880" height="26" as="geometry" />
        </mxCell>
        <mxCell id="xfODIB_jVRz_zEy3CT39-20" value="+ update_state(jointPosition: Eigen::VectorXd, jointVelocity: Eigen::VectorXd): bool" style="text;strokeColor=none;fillColor=none;align=left;verticalAlign=top;spacingLeft=4;spacingRight=4;overflow=hidden;rotatable=0;points=[[0,0.5],[1,0.5]];portConstraint=eastwest;" vertex="1" parent="xfODIB_jVRz_zEy3CT39-1">
          <mxGeometry y="1048" width="880" height="26" as="geometry" />
        </mxCell>
        <mxCell id="xfODIB_jVRz_zEy3CT39-21" value="+ update_state(jointPosition: Eigen::VectorXd, jointVelocity: Eigen::VectorXd, basePose: RobotLibrary::Model::Pose, baseTwist: Eigen::Vector&lt;double, 6&gt;): bool" style="text;strokeColor=none;fillColor=none;align=left;verticalAlign=top;spacingLeft=4;spacingRight=4;overflow=hidden;rotatable=0;points=[[0,0.5],[1,0.5]];portConstraint=eastwest;" vertex="1" parent="xfODIB_jVRz_zEy3CT39-1">
          <mxGeometry y="1074" width="880" height="26" as="geometry" />
        </mxCell>
        <mxCell id="3AuQoagSHCQjhJ82JMqs-20" style="edgeStyle=orthogonalEdgeStyle;rounded=0;orthogonalLoop=1;jettySize=auto;html=1;exitX=0.5;exitY=1;exitDx=0;exitDy=0;entryX=0.5;entryY=0;entryDx=0;entryDy=0;" edge="1" parent="1" source="3AuQoagSHCQjhJ82JMqs-1" target="xfODIB_jVRz_zEy3CT39-1">
          <mxGeometry relative="1" as="geometry" />
        </mxCell>
        <mxCell id="3AuQoagSHCQjhJ82JMqs-1" value="RobotLibrary::Model::Link" style="swimlane;fontStyle=1;childLayout=stackLayout;horizontal=1;startSize=26;horizontalStack=0;resizeParent=1;resizeParentMax=0;resizeLast=0;collapsible=1;marginBottom=0;" vertex="1" collapsed="1" parent="1">
          <mxGeometry x="-1285" y="-1160" width="190" height="30" as="geometry">
            <mxRectangle x="-1630" y="-1070" width="700" height="476" as="alternateBounds" />
          </mxGeometry>
        </mxCell>
        <mxCell id="3AuQoagSHCQjhJ82JMqs-2" value="- _childLinks: std::vector&lt;Link*&gt;" style="text;strokeColor=none;fillColor=none;align=left;verticalAlign=top;spacingLeft=4;spacingRight=4;overflow=hidden;rotatable=0;points=[[0,0.5],[1,0.5]];portConstraint=eastwest;" vertex="1" parent="3AuQoagSHCQjhJ82JMqs-1">
          <mxGeometry y="26" width="700" height="26" as="geometry" />
        </mxCell>
        <mxCell id="3AuQoagSHCQjhJ82JMqs-3" value="- _joint: RobotLibrary::Model::Joint" style="text;strokeColor=none;fillColor=none;align=left;verticalAlign=top;spacingLeft=4;spacingRight=4;overflow=hidden;rotatable=0;points=[[0,0.5],[1,0.5]];portConstraint=eastwest;" vertex="1" parent="3AuQoagSHCQjhJ82JMqs-1">
          <mxGeometry y="52" width="700" height="26" as="geometry" />
        </mxCell>
        <mxCell id="3AuQoagSHCQjhJ82JMqs-4" value="- _jointAxis: Eigen::Vector3d" style="text;strokeColor=none;fillColor=none;align=left;verticalAlign=top;spacingLeft=4;spacingRight=4;overflow=hidden;rotatable=0;points=[[0,0.5],[1,0.5]];portConstraint=eastwest;" vertex="1" parent="3AuQoagSHCQjhJ82JMqs-1">
          <mxGeometry y="78" width="700" height="26" as="geometry" />
        </mxCell>
        <mxCell id="3AuQoagSHCQjhJ82JMqs-5" value="- _number: unsigned int" style="text;strokeColor=none;fillColor=none;align=left;verticalAlign=top;spacingLeft=4;spacingRight=4;overflow=hidden;rotatable=0;points=[[0,0.5],[1,0.5]];portConstraint=eastwest;" vertex="1" parent="3AuQoagSHCQjhJ82JMqs-1">
          <mxGeometry y="104" width="700" height="26" as="geometry" />
        </mxCell>
        <mxCell id="3AuQoagSHCQjhJ82JMqs-6" value="- _parentLink: Link*" style="text;strokeColor=none;fillColor=none;align=left;verticalAlign=top;spacingLeft=4;spacingRight=4;overflow=hidden;rotatable=0;points=[[0,0.5],[1,0.5]];portConstraint=eastwest;" vertex="1" parent="3AuQoagSHCQjhJ82JMqs-1">
          <mxGeometry y="130" width="700" height="26" as="geometry" />
        </mxCell>
        <mxCell id="3AuQoagSHCQjhJ82JMqs-7" value="" style="line;strokeWidth=1;fillColor=none;align=left;verticalAlign=middle;spacingTop=-1;spacingLeft=3;spacingRight=3;rotatable=0;labelPosition=right;points=[];portConstraint=eastwest;" vertex="1" parent="3AuQoagSHCQjhJ82JMqs-1">
          <mxGeometry y="156" width="700" height="8" as="geometry" />
        </mxCell>
        <mxCell id="3AuQoagSHCQjhJ82JMqs-8" value="+ Link(rigidBody: RobotLibrary::Model::RigidBody, joint: RobotLibrary::Model::Joint)" style="text;strokeColor=none;fillColor=none;align=left;verticalAlign=top;spacingLeft=4;spacingRight=4;overflow=hidden;rotatable=0;points=[[0,0.5],[1,0.5]];portConstraint=eastwest;" vertex="1" parent="3AuQoagSHCQjhJ82JMqs-1">
          <mxGeometry y="164" width="700" height="26" as="geometry" />
        </mxCell>
        <mxCell id="3AuQoagSHCQjhJ82JMqs-9" value="+ add_child_link(child: Link*): bool" style="text;strokeColor=none;fillColor=none;align=left;verticalAlign=top;spacingLeft=4;spacingRight=4;overflow=hidden;rotatable=0;points=[[0,0.5],[1,0.5]];portConstraint=eastwest;" vertex="1" parent="3AuQoagSHCQjhJ82JMqs-1">
          <mxGeometry y="190" width="700" height="26" as="geometry" />
        </mxCell>
        <mxCell id="3AuQoagSHCQjhJ82JMqs-10" value="+ clear_parent_link(): void" style="text;strokeColor=none;fillColor=none;align=left;verticalAlign=top;spacingLeft=4;spacingRight=4;overflow=hidden;rotatable=0;points=[[0,0.5],[1,0.5]];portConstraint=eastwest;" vertex="1" parent="3AuQoagSHCQjhJ82JMqs-1">
          <mxGeometry y="216" width="700" height="26" as="geometry" />
        </mxCell>
        <mxCell id="3AuQoagSHCQjhJ82JMqs-11" value="+ joint(): RobotLibrary::Model::Joint" style="text;strokeColor=none;fillColor=none;align=left;verticalAlign=top;spacingLeft=4;spacingRight=4;overflow=hidden;rotatable=0;points=[[0,0.5],[1,0.5]];portConstraint=eastwest;" vertex="1" parent="3AuQoagSHCQjhJ82JMqs-1">
          <mxGeometry y="242" width="700" height="26" as="geometry" />
        </mxCell>
        <mxCell id="3AuQoagSHCQjhJ82JMqs-12" value="+ joint_axis(): Eigen::Vector3d" style="text;strokeColor=none;fillColor=none;align=left;verticalAlign=top;spacingLeft=4;spacingRight=4;overflow=hidden;rotatable=0;points=[[0,0.5],[1,0.5]];portConstraint=eastwest;" vertex="1" parent="3AuQoagSHCQjhJ82JMqs-1">
          <mxGeometry y="268" width="700" height="26" as="geometry" />
        </mxCell>
        <mxCell id="3AuQoagSHCQjhJ82JMqs-13" value="+ merge(otherLink: Link): void" style="text;strokeColor=none;fillColor=none;align=left;verticalAlign=top;spacingLeft=4;spacingRight=4;overflow=hidden;rotatable=0;points=[[0,0.5],[1,0.5]];portConstraint=eastwest;" vertex="1" parent="3AuQoagSHCQjhJ82JMqs-1">
          <mxGeometry y="294" width="700" height="26" as="geometry" />
        </mxCell>
        <mxCell id="3AuQoagSHCQjhJ82JMqs-14" value="+ number(): unsigned int" style="text;strokeColor=none;fillColor=none;align=left;verticalAlign=top;spacingLeft=4;spacingRight=4;overflow=hidden;rotatable=0;points=[[0,0.5],[1,0.5]];portConstraint=eastwest;" vertex="1" parent="3AuQoagSHCQjhJ82JMqs-1">
          <mxGeometry y="320" width="700" height="26" as="geometry" />
        </mxCell>
        <mxCell id="3AuQoagSHCQjhJ82JMqs-15" value="+ parent_link(): Link*" style="text;strokeColor=none;fillColor=none;align=left;verticalAlign=top;spacingLeft=4;spacingRight=4;overflow=hidden;rotatable=0;points=[[0,0.5],[1,0.5]];portConstraint=eastwest;" vertex="1" parent="3AuQoagSHCQjhJ82JMqs-1">
          <mxGeometry y="346" width="700" height="26" as="geometry" />
        </mxCell>
        <mxCell id="3AuQoagSHCQjhJ82JMqs-16" value="+ set_number(number: unsigned int): void" style="text;strokeColor=none;fillColor=none;align=left;verticalAlign=top;spacingLeft=4;spacingRight=4;overflow=hidden;rotatable=0;points=[[0,0.5],[1,0.5]];portConstraint=eastwest;" vertex="1" parent="3AuQoagSHCQjhJ82JMqs-1">
          <mxGeometry y="372" width="700" height="26" as="geometry" />
        </mxCell>
        <mxCell id="3AuQoagSHCQjhJ82JMqs-17" value="+ set_parent_link(parent: Link*): bool" style="text;strokeColor=none;fillColor=none;align=left;verticalAlign=top;spacingLeft=4;spacingRight=4;overflow=hidden;rotatable=0;points=[[0,0.5],[1,0.5]];portConstraint=eastwest;" vertex="1" parent="3AuQoagSHCQjhJ82JMqs-1">
          <mxGeometry y="398" width="700" height="26" as="geometry" />
        </mxCell>
        <mxCell id="3AuQoagSHCQjhJ82JMqs-18" value="+ update_state(jointPosition: double, jointVelocity: double): bool" style="text;strokeColor=none;fillColor=none;align=left;verticalAlign=top;spacingLeft=4;spacingRight=4;overflow=hidden;rotatable=0;points=[[0,0.5],[1,0.5]];portConstraint=eastwest;" vertex="1" parent="3AuQoagSHCQjhJ82JMqs-1">
          <mxGeometry y="424" width="700" height="26" as="geometry" />
        </mxCell>
        <mxCell id="3AuQoagSHCQjhJ82JMqs-19" value="+ update_state(previousPose: Pose, previousTwist: Eigen::Vector&lt;double, 6&gt;, jointPosition: double, jointVelocity: double): bool" style="text;strokeColor=none;fillColor=none;align=left;verticalAlign=top;spacingLeft=4;spacingRight=4;overflow=hidden;rotatable=0;points=[[0,0.5],[1,0.5]];portConstraint=eastwest;" vertex="1" parent="3AuQoagSHCQjhJ82JMqs-1">
          <mxGeometry y="450" width="700" height="26" as="geometry" />
        </mxCell>
      </root>
    </mxGraphModel>
  </diagram>
</mxfile>
